<svg width="17" height="18" viewBox="0 0 17 18" fill="none" xmlns="http://www.w3.org/2000/svg">
<path d="M10.1593 16.251C9.74506 16.251 9.40927 16.5868 9.40927 17.001C9.40927 17.4152 9.74506 17.751 10.1593 17.751H16.1593C16.5735 17.751 16.9093 17.4152 16.9093 17.001C16.9093 16.5868 16.5735 16.251 16.1593 16.251H10.1593Z" fill="#00B09C"/>
<path d="M10.9533 1.3255L11.0434 1.3775C11.8215 1.82671 12.4704 2.2013 12.9455 2.56795C13.447 2.95494 13.845 3.39914 14.0117 4.02132C14.1784 4.6435 14.0558 5.2272 13.815 5.81309C13.6479 6.21976 13.4021 6.67674 13.106 7.19801L12.4707 6.8204L12.4625 6.8156L5.53718 2.81728L4.88953 2.43557C5.18962 1.92448 5.46 1.48795 5.7262 1.143C6.11319 0.641518 6.55739 0.24349 7.17957 0.0767766C7.80175 -0.089937 8.38545 0.0326677 8.97134 0.273468C9.52641 0.501604 10.1753 0.876242 10.9533 1.3255Z" fill="#00B09C"/>
<path d="M4.1381 3.73384L0.660135 9.75775C0.362348 10.2725 0.126888 10.6796 0.0396526 11.1426C-0.047583 11.6056 0.023604 12.0704 0.113635 12.6583L0.137891 12.8172C0.304077 13.9086 0.441057 14.8081 0.647657 15.4903C0.863729 16.2037 1.19588 16.8212 1.84915 17.1984C2.50243 17.5756 3.20329 17.5545 3.92918 17.3849C4.62324 17.2227 5.47078 16.8916 6.49901 16.4898L6.64875 16.4314C7.20288 16.2154 7.64103 16.0446 7.99839 15.7376C8.35574 15.4305 8.59053 15.0231 8.88747 14.5078L12.3572 8.49792L11.7084 8.11226L4.77844 4.11127L4.1381 3.73384Z" fill="#00B09C"/>
</svg>
