<svg width="351" height="218" viewBox="0 0 351 218" fill="none" xmlns="http://www.w3.org/2000/svg">
<path d="M71.9447 125.397C71.2199 124.689 70.3323 124.17 69.3595 123.885L62.2408 116.142L58.4863 119.732L66.1171 127.202C66.4415 128.155 66.9984 129.013 67.7378 129.698C69.5643 131.439 71.9854 131.887 73.1468 130.698C74.3081 129.509 73.7747 127.138 71.9536 125.4H71.9467L71.9447 125.397Z" fill="#DCAFB6"/>
<path d="M68.9777 121.911L65.1958 126.654L45.6489 111.895L45.632 111.861L34.2095 90.6008C33.739 89.7225 33.4538 88.7574 33.3716 87.765C33.2893 86.7726 33.4116 85.7739 33.7311 84.8305C34.0506 83.887 34.5604 83.0188 35.2291 82.2794C35.8978 81.54 36.7112 80.9451 37.6193 80.5312C38.5273 80.1173 39.5107 79.8934 40.5089 79.8731C41.507 79.8528 42.4987 80.0367 43.4229 80.4133C44.3471 80.7899 45.1842 81.3513 45.8825 82.063C46.5808 82.7746 47.1257 83.6214 47.4834 84.551L54.8949 103.9L68.9786 121.905L68.9777 121.911Z" fill="#E91A1A"/>
<path d="M36.789 72.7319H44.7578V85.3418L35.9717 82.4612L36.789 72.7319Z" fill="#DCAFB6"/>
<path d="M52.4225 67.4898C52.4225 69.2159 51.9094 70.9033 50.9479 72.3385C49.9865 73.7738 48.6199 74.8924 47.0211 75.553C45.4223 76.2135 43.663 76.3864 41.9657 76.0496C40.2684 75.7129 38.7093 74.8816 37.4856 73.6611C36.2619 72.4405 35.4286 70.8854 35.091 69.1924C34.7534 67.4994 34.9266 65.7446 35.5889 64.1499C36.2512 62.5551 37.3726 61.1921 38.8115 60.2331C40.2505 59.2741 41.9421 58.7622 43.6727 58.7622C45.9933 58.7622 48.2188 59.6817 49.8597 61.3184C51.5007 62.9552 52.4225 65.1751 52.4225 67.4898Z" fill="#DCAFB6"/>
<path d="M37.4772 73.0722L36.6231 74.6888L32.8547 67.5456C30.5857 60.6141 38.5103 56.6337 38.5103 56.6337C41.0955 53.5959 46.2932 57.1489 46.2932 57.1489C53.7892 55.4887 50.171 61.7898 50.171 61.7898C50.171 61.7898 47.6131 61.8469 47.6131 63.9078C47.6131 65.9687 44.8291 65.8273 44.8291 65.8273L42.6476 69.6367L41.442 68.1748C36.9607 66.2821 37.4772 73.0722 37.4772 73.0722Z" fill="#2F2E43"/>
<path d="M40.63 201.937H33.5596V211.943H40.63V201.937Z" fill="#9F616A"/>
<path d="M47.5157 217.999C44.4125 217.999 39.8815 217.676 39.8477 217.672C38.6356 217.78 32.5848 218.255 32.284 216.874C32.1253 215.946 32.19 214.994 32.473 214.097C33.0571 208.328 33.2734 208.26 33.4016 208.223C33.6075 208.162 34.2085 208.449 35.1844 209.075L35.2451 209.115L35.2585 209.186C35.2754 209.274 35.7059 211.392 37.7572 211.07C39.1616 210.848 39.6175 210.538 39.7627 210.387C39.6118 210.321 39.4829 210.213 39.3913 210.077C39.3139 209.941 39.2668 209.79 39.2534 209.634C39.24 209.478 39.2606 209.321 39.3137 209.174C39.5993 208.33 39.9633 207.515 40.401 206.739L40.492 206.578L48.5279 211.987L53.4915 213.401C53.6756 213.453 53.8457 213.546 53.9889 213.672C54.1322 213.799 54.2449 213.956 54.3187 214.132C54.4211 214.377 54.4449 214.646 54.3869 214.905C54.3288 215.163 54.1917 215.397 53.9946 215.574C53.0932 216.382 51.3 217.767 49.4208 217.938C48.9212 217.988 48.2595 218.002 47.5162 218.002L47.5157 217.999Z" fill="#2F2E43"/>
<path d="M12.1942 194.651L17.6455 199.143L24.0356 191.428L18.5842 186.936L12.1942 194.651Z" fill="#9F616A"/>
<path d="M19.072 208.174C16.6812 206.201 13.396 203.072 13.3721 203.048C12.3694 202.365 7.40234 198.883 8.05261 197.626C8.52152 196.808 9.18055 196.115 9.97412 195.605C14.1104 191.526 14.3162 191.614 14.4415 191.668C14.6403 191.752 14.9208 192.352 15.2722 193.456L15.2926 193.523L15.2588 193.587C15.2091 193.668 14.1919 195.578 15.9782 196.629C17.2037 197.349 17.751 197.4 17.9603 197.376C17.8855 197.229 17.8549 197.063 17.8723 196.898C17.8997 196.745 17.9601 196.599 18.0492 196.47C18.1384 196.342 18.2542 196.234 18.3889 196.155C19.1481 195.686 19.9495 195.289 20.7826 194.969L20.9547 194.901L23.689 204.174L26.6097 208.421C26.7179 208.579 26.7892 208.759 26.8184 208.948C26.8477 209.136 26.8341 209.329 26.7787 209.512C26.7013 209.766 26.547 209.989 26.3372 210.151C26.1273 210.313 25.8722 210.406 25.607 210.418C24.3984 210.468 22.1324 210.394 20.5758 209.334C20.1637 209.051 19.6437 208.643 19.07 208.172L19.072 208.174Z" fill="#2F2E43"/>
<path d="M52.3208 124.773L41.5431 204.739H33.4594L28.0703 124.773H52.3243H52.3208Z" fill="#2F2E43"/>
<path d="M31.44 168.452L15.3438 189.283L22.2318 194.958L49.8554 168.752L52.3237 124.773L47.3841 129.178L31.44 168.452Z" fill="#2F2E43"/>
<path d="M47.3839 77.7338L52.3236 124.774H28.0701L26.1894 109.507C25.0308 100.078 26.959 90.5276 31.6864 82.2806L35.4066 75.7939L47.3839 77.7338Z" fill="#E91A1A"/>
<path d="M49.5583 138.141C49.1941 137.197 48.6026 136.358 47.8362 135.696L44.5798 125.7L39.667 127.414L43.4995 137.366C43.3961 138.368 43.5458 139.38 43.935 140.31C44.8702 142.648 46.8896 144.058 48.4392 143.459C49.9888 142.859 50.4889 140.478 49.5533 138.141H49.5583Z" fill="#DCAFB6"/>
<path d="M48.2995 133.719L42.887 136.467L31.2413 114.949V114.913L29.6917 90.842C29.6279 89.8471 29.7692 88.8497 30.1071 87.9115C30.4449 86.9732 30.972 86.114 31.6558 85.3869C32.3396 84.6598 33.1656 84.0802 34.0828 83.6841C35 83.2879 35.9889 83.0835 36.9883 83.0835C37.9878 83.0835 38.9767 83.2879 39.8939 83.6841C40.8111 84.0802 41.6371 84.6598 42.3209 85.3869C43.0047 86.114 43.5318 86.9732 43.8696 87.9115C44.2074 88.8497 44.3488 89.8471 44.285 90.842L42.9785 111.511L48.298 133.723L48.2995 133.719Z" fill="#E91A1A"/>
<path d="M347.194 174.655H122.54C120.447 174.655 118.749 173.148 118.747 171.292V20.3625C118.75 18.5062 120.447 17.0022 122.54 17H347.194C349.288 17 350.985 18.5062 350.987 20.3625V171.292C350.985 173.148 349.288 174.652 347.194 174.655ZM122.54 17.7463C120.912 17.7463 119.592 18.9179 119.59 20.3616V171.291C119.59 172.735 120.912 173.905 122.54 173.907H347.194C348.823 173.907 350.143 172.735 350.144 171.291V20.3616C350.144 18.9179 348.823 17.7481 347.194 17.7463H122.54Z" fill="#E6E6E6"/>
<path d="M325.612 52.011H144.793C143.788 52.0099 142.823 51.6109 142.112 50.9015C141.401 50.1922 141.001 49.2304 141 48.2273V35.1944C141.001 34.1912 141.401 33.2295 142.112 32.5202C142.823 31.8108 143.788 31.4118 144.793 31.4106H325.612C326.618 31.4118 327.582 31.8108 328.293 32.5202C329.004 33.2295 329.404 34.1912 329.405 35.1944V48.2273C329.404 49.2304 329.004 50.1922 328.293 50.9015C327.582 51.6109 326.618 52.0099 325.612 52.011ZM144.793 32.2515C144.011 32.2524 143.261 32.5628 142.708 33.1145C142.155 33.6662 141.844 34.4142 141.843 35.1944V48.2273C141.844 49.0075 142.155 49.7555 142.708 50.3072C143.261 50.8589 144.011 51.1693 144.793 51.1702H325.612C326.394 51.1693 327.144 50.8589 327.697 50.3072C328.25 49.7555 328.562 49.0075 328.562 48.2273V35.1944C328.562 34.4142 328.25 33.6662 327.697 33.1145C327.144 32.5628 326.394 32.2524 325.612 32.2515H144.793Z" fill="#FFD3D3"/>
<path d="M216.184 92.2537H144.531C143.525 92.2526 142.561 91.8535 141.85 91.1442C141.138 90.4349 140.738 89.4731 140.737 88.47V75.4371C140.738 74.4339 141.138 73.4722 141.85 72.7628C142.561 72.0535 143.525 71.6545 144.531 71.6533H216.184C217.19 71.6545 218.154 72.0535 218.865 72.7628C219.576 73.4722 219.976 74.4339 219.977 75.4371V88.47C219.976 89.4731 219.576 90.4349 218.865 91.1442C218.154 91.8535 217.19 92.2526 216.184 92.2537ZM144.531 72.4942C143.748 72.4951 142.999 72.8054 142.445 73.3571C141.892 73.9088 141.581 74.6568 141.58 75.4371V88.47C141.581 89.2502 141.892 89.9982 142.445 90.5499C142.999 91.1016 143.748 91.412 144.531 91.4129H216.184C216.966 91.412 217.716 91.1016 218.269 90.5499C218.822 89.9982 219.133 89.2502 219.134 88.47V75.4371C219.133 74.6568 218.822 73.9088 218.269 73.3571C217.716 72.8054 216.966 72.4951 216.184 72.4942H144.531Z" fill="#FFD3D3"/>
<path d="M325.349 92.2537H253.696C252.69 92.2526 251.726 91.8535 251.015 91.1442C250.304 90.4349 249.904 89.4731 249.902 88.47V75.4371C249.904 74.4339 250.304 73.4722 251.015 72.7628C251.726 72.0535 252.69 71.6545 253.696 71.6533H325.349C326.355 71.6545 327.319 72.0535 328.03 72.7628C328.741 73.4722 329.141 74.4339 329.142 75.4371V88.47C329.141 89.4731 328.741 90.4349 328.03 91.1442C327.319 91.8535 326.355 92.2526 325.349 92.2537ZM253.696 72.4942C252.914 72.4951 252.164 72.8054 251.611 73.3571C251.057 73.9088 250.746 74.6568 250.745 75.4371V88.47C250.746 89.2502 251.057 89.9983 251.61 90.55C252.164 91.1018 252.913 91.4121 253.696 91.4129H325.349C326.131 91.412 326.881 91.1016 327.434 90.5499C327.987 89.9982 328.298 89.2502 328.299 88.47V75.4371C328.298 74.6568 327.987 73.9088 327.434 73.3571C326.881 72.8054 326.131 72.4951 325.349 72.4942H253.696Z" fill="#FFD3D3"/>
<rect x="207" y="149" width="55" height="14" rx="7" fill="#FFD8D8"/>
<path d="M218.152 159C218.099 159 218.053 158.981 218.016 158.944C217.979 158.907 217.96 158.861 217.96 158.808V153.6C217.96 153.541 217.979 153.493 218.016 153.456C218.053 153.419 218.099 153.4 218.152 153.4H220.224C220.869 153.4 221.379 153.549 221.752 153.848C222.125 154.147 222.312 154.581 222.312 155.152C222.312 155.547 222.213 155.875 222.016 156.136C221.824 156.397 221.565 156.587 221.24 156.704L222.408 158.744C222.424 158.776 222.432 158.805 222.432 158.832C222.432 158.88 222.413 158.92 222.376 158.952C222.344 158.984 222.307 159 222.264 159H221.536C221.445 159 221.376 158.976 221.328 158.928C221.28 158.88 221.243 158.832 221.216 158.784L220.184 156.888H219.072V158.808C219.072 158.861 219.053 158.907 219.016 158.944C218.984 158.981 218.939 159 218.88 159H218.152ZM219.072 155.984H220.2C220.525 155.984 220.768 155.912 220.928 155.768C221.088 155.619 221.168 155.411 221.168 155.144C221.168 154.877 221.088 154.669 220.928 154.52C220.773 154.365 220.531 154.288 220.2 154.288H219.072V155.984ZM224.992 159.08C224.4 159.08 223.931 158.909 223.584 158.568C223.237 158.227 223.051 157.741 223.024 157.112C223.019 157.059 223.016 156.992 223.016 156.912C223.016 156.827 223.019 156.76 223.024 156.712C223.045 156.312 223.136 155.965 223.296 155.672C223.461 155.379 223.688 155.155 223.976 155C224.264 154.84 224.603 154.76 224.992 154.76C225.424 154.76 225.787 154.851 226.08 155.032C226.373 155.208 226.595 155.456 226.744 155.776C226.893 156.091 226.968 156.456 226.968 156.872V157.04C226.968 157.093 226.949 157.139 226.912 157.176C226.875 157.213 226.827 157.232 226.768 157.232H224.112C224.112 157.232 224.112 157.24 224.112 157.256C224.112 157.272 224.112 157.285 224.112 157.296C224.117 157.483 224.152 157.656 224.216 157.816C224.285 157.971 224.384 158.096 224.512 158.192C224.645 158.288 224.803 158.336 224.984 158.336C225.133 158.336 225.259 158.315 225.36 158.272C225.461 158.224 225.544 158.171 225.608 158.112C225.672 158.053 225.717 158.005 225.744 157.968C225.792 157.904 225.829 157.867 225.856 157.856C225.888 157.84 225.933 157.832 225.992 157.832H226.68C226.733 157.832 226.776 157.848 226.808 157.88C226.845 157.912 226.861 157.952 226.856 158C226.851 158.085 226.805 158.189 226.72 158.312C226.64 158.435 226.523 158.555 226.368 158.672C226.213 158.789 226.019 158.888 225.784 158.968C225.555 159.043 225.291 159.08 224.992 159.08ZM224.112 156.56H225.88V156.536C225.88 156.328 225.845 156.147 225.776 155.992C225.707 155.837 225.605 155.715 225.472 155.624C225.339 155.533 225.179 155.488 224.992 155.488C224.805 155.488 224.645 155.533 224.512 155.624C224.379 155.715 224.277 155.837 224.208 155.992C224.144 156.147 224.112 156.328 224.112 156.536V156.56ZM227.129 160.52C227.076 160.52 227.03 160.501 226.993 160.464C226.956 160.427 226.937 160.381 226.937 160.328V159.864C226.937 159.811 226.956 159.765 226.993 159.728C227.03 159.691 227.076 159.672 227.129 159.672H227.337C227.502 159.672 227.625 159.643 227.705 159.584C227.785 159.525 227.838 159.443 227.865 159.336C227.892 159.235 227.905 159.12 227.905 158.992V155.032C227.905 154.979 227.924 154.933 227.961 154.896C227.998 154.859 228.044 154.84 228.097 154.84H228.793C228.846 154.84 228.892 154.859 228.929 154.896C228.966 154.933 228.985 154.979 228.985 155.032V159.008C228.985 159.323 228.926 159.592 228.809 159.816C228.697 160.04 228.526 160.213 228.297 160.336C228.073 160.459 227.785 160.52 227.433 160.52H227.129ZM228.065 154.152C228.006 154.152 227.958 154.136 227.921 154.104C227.884 154.067 227.865 154.019 227.865 153.96V153.384C227.865 153.331 227.884 153.285 227.921 153.248C227.958 153.211 228.006 153.192 228.065 153.192H228.817C228.876 153.192 228.924 153.211 228.961 153.248C228.998 153.285 229.017 153.331 229.017 153.384V153.96C229.017 154.019 228.998 154.067 228.961 154.104C228.924 154.136 228.876 154.152 228.817 154.152H228.065ZM231.843 159.08C231.251 159.08 230.782 158.909 230.435 158.568C230.089 158.227 229.902 157.741 229.875 157.112C229.87 157.059 229.867 156.992 229.867 156.912C229.867 156.827 229.87 156.76 229.875 156.712C229.897 156.312 229.987 155.965 230.147 155.672C230.313 155.379 230.539 155.155 230.827 155C231.115 154.84 231.454 154.76 231.843 154.76C232.275 154.76 232.638 154.851 232.931 155.032C233.225 155.208 233.446 155.456 233.595 155.776C233.745 156.091 233.819 156.456 233.819 156.872V157.04C233.819 157.093 233.801 157.139 233.763 157.176C233.726 157.213 233.678 157.232 233.619 157.232H230.963C230.963 157.232 230.963 157.24 230.963 157.256C230.963 157.272 230.963 157.285 230.963 157.296C230.969 157.483 231.003 157.656 231.067 157.816C231.137 157.971 231.235 158.096 231.363 158.192C231.497 158.288 231.654 158.336 231.835 158.336C231.985 158.336 232.11 158.315 232.211 158.272C232.313 158.224 232.395 158.171 232.459 158.112C232.523 158.053 232.569 158.005 232.595 157.968C232.643 157.904 232.681 157.867 232.707 157.856C232.739 157.84 232.785 157.832 232.843 157.832H233.531C233.585 157.832 233.627 157.848 233.659 157.88C233.697 157.912 233.713 157.952 233.707 158C233.702 158.085 233.657 158.189 233.571 158.312C233.491 158.435 233.374 158.555 233.219 158.672C233.065 158.789 232.87 158.888 232.635 158.968C232.406 159.043 232.142 159.08 231.843 159.08ZM230.963 156.56H232.731V156.536C232.731 156.328 232.697 156.147 232.627 155.992C232.558 155.837 232.457 155.715 232.323 155.624C232.19 155.533 232.03 155.488 231.843 155.488C231.657 155.488 231.497 155.533 231.363 155.624C231.23 155.715 231.129 155.837 231.059 155.992C230.995 156.147 230.963 156.328 230.963 156.536V156.56ZM236.469 159.08C236.085 159.08 235.746 159.008 235.453 158.864C235.165 158.72 234.938 158.512 234.773 158.24C234.613 157.963 234.525 157.629 234.509 157.24C234.503 157.16 234.501 157.056 234.501 156.928C234.501 156.795 234.503 156.685 234.509 156.6C234.525 156.211 234.613 155.88 234.773 155.608C234.938 155.331 235.165 155.12 235.453 154.976C235.746 154.832 236.085 154.76 236.469 154.76C236.81 154.76 237.101 154.808 237.341 154.904C237.581 155 237.778 155.12 237.933 155.264C238.087 155.408 238.202 155.56 238.277 155.72C238.357 155.875 238.399 156.016 238.405 156.144C238.41 156.203 238.391 156.251 238.349 156.288C238.311 156.32 238.266 156.336 238.213 156.336H237.509C237.455 156.336 237.413 156.323 237.381 156.296C237.354 156.269 237.327 156.229 237.301 156.176C237.221 155.963 237.114 155.813 236.981 155.728C236.853 155.637 236.687 155.592 236.485 155.592C236.218 155.592 236.005 155.677 235.845 155.848C235.69 156.013 235.607 156.277 235.597 156.64C235.586 156.843 235.586 157.029 235.597 157.2C235.607 157.568 235.69 157.835 235.845 158C236.005 158.165 236.218 158.248 236.485 158.248C236.693 158.248 236.861 158.205 236.989 158.12C237.117 158.029 237.221 157.877 237.301 157.664C237.327 157.611 237.354 157.571 237.381 157.544C237.413 157.517 237.455 157.504 237.509 157.504H238.213C238.266 157.504 238.311 157.523 238.349 157.56C238.391 157.592 238.41 157.637 238.405 157.696C238.399 157.792 238.373 157.901 238.325 158.024C238.282 158.141 238.21 158.264 238.109 158.392C238.013 158.515 237.89 158.629 237.741 158.736C237.591 158.837 237.41 158.92 237.197 158.984C236.989 159.048 236.746 159.08 236.469 159.08ZM241.119 159C240.799 159 240.53 158.944 240.311 158.832C240.092 158.72 239.93 158.555 239.823 158.336C239.716 158.112 239.663 157.835 239.663 157.504V155.688H239.031C238.978 155.688 238.932 155.669 238.895 155.632C238.858 155.595 238.839 155.549 238.839 155.496V155.032C238.839 154.979 238.858 154.933 238.895 154.896C238.932 154.859 238.978 154.84 239.031 154.84H239.663V153.512C239.663 153.459 239.679 153.413 239.711 153.376C239.748 153.339 239.796 153.32 239.855 153.32H240.503C240.556 153.32 240.602 153.339 240.639 153.376C240.676 153.413 240.695 153.459 240.695 153.512V154.84H241.695C241.748 154.84 241.794 154.859 241.831 154.896C241.868 154.933 241.887 154.979 241.887 155.032V155.496C241.887 155.549 241.868 155.595 241.831 155.632C241.794 155.669 241.748 155.688 241.695 155.688H240.695V157.424C240.695 157.643 240.732 157.813 240.807 157.936C240.887 158.059 241.023 158.12 241.215 158.12H241.767C241.82 158.12 241.866 158.139 241.903 158.176C241.94 158.213 241.959 158.259 241.959 158.312V158.808C241.959 158.861 241.94 158.907 241.903 158.944C241.866 158.981 241.82 159 241.767 159H241.119ZM244.461 159.08C243.869 159.08 243.399 158.909 243.053 158.568C242.706 158.227 242.519 157.741 242.493 157.112C242.487 157.059 242.485 156.992 242.485 156.912C242.485 156.827 242.487 156.76 242.493 156.712C242.514 156.312 242.605 155.965 242.765 155.672C242.93 155.379 243.157 155.155 243.445 155C243.733 154.84 244.071 154.76 244.461 154.76C244.893 154.76 245.255 154.851 245.549 155.032C245.842 155.208 246.063 155.456 246.213 155.776C246.362 156.091 246.437 156.456 246.437 156.872V157.04C246.437 157.093 246.418 157.139 246.381 157.176C246.343 157.213 246.295 157.232 246.237 157.232H243.581C243.581 157.232 243.581 157.24 243.581 157.256C243.581 157.272 243.581 157.285 243.581 157.296C243.586 157.483 243.621 157.656 243.685 157.816C243.754 157.971 243.853 158.096 243.981 158.192C244.114 158.288 244.271 158.336 244.453 158.336C244.602 158.336 244.727 158.315 244.829 158.272C244.93 158.224 245.013 158.171 245.077 158.112C245.141 158.053 245.186 158.005 245.213 157.968C245.261 157.904 245.298 157.867 245.325 157.856C245.357 157.84 245.402 157.832 245.461 157.832H246.149C246.202 157.832 246.245 157.848 246.277 157.88C246.314 157.912 246.33 157.952 246.325 158C246.319 158.085 246.274 158.189 246.189 158.312C246.109 158.435 245.991 158.555 245.837 158.672C245.682 158.789 245.487 158.888 245.253 158.968C245.023 159.043 244.759 159.08 244.461 159.08ZM243.581 156.56H245.349V156.536C245.349 156.328 245.314 156.147 245.245 155.992C245.175 155.837 245.074 155.715 244.941 155.624C244.807 155.533 244.647 155.488 244.461 155.488C244.274 155.488 244.114 155.533 243.981 155.624C243.847 155.715 243.746 155.837 243.677 155.992C243.613 156.147 243.581 156.328 243.581 156.536V156.56ZM248.83 159.08C248.552 159.08 248.307 159.035 248.094 158.944C247.886 158.848 247.712 158.715 247.574 158.544C247.435 158.373 247.328 158.173 247.254 157.944C247.179 157.709 247.136 157.453 247.126 157.176C247.12 157.08 247.118 156.995 247.118 156.92C247.118 156.84 247.12 156.752 247.126 156.656C247.136 156.389 247.176 156.141 247.246 155.912C247.32 155.683 247.427 155.483 247.566 155.312C247.71 155.136 247.886 155 248.094 154.904C248.307 154.808 248.552 154.76 248.83 154.76C249.118 154.76 249.36 154.811 249.558 154.912C249.76 155.008 249.928 155.133 250.062 155.288V153.512C250.062 153.459 250.078 153.413 250.11 153.376C250.147 153.339 250.195 153.32 250.254 153.32H250.934C250.987 153.32 251.032 153.339 251.07 153.376C251.107 153.413 251.126 153.459 251.126 153.512V158.808C251.126 158.861 251.107 158.907 251.07 158.944C251.032 158.981 250.987 159 250.934 159H250.302C250.243 159 250.195 158.981 250.158 158.944C250.126 158.907 250.11 158.861 250.11 158.808V158.512C249.976 158.677 249.806 158.813 249.598 158.92C249.395 159.027 249.139 159.08 248.83 159.08ZM249.126 158.224C249.35 158.224 249.528 158.173 249.662 158.072C249.795 157.971 249.894 157.843 249.958 157.688C250.022 157.528 250.056 157.365 250.062 157.2C250.067 157.104 250.07 157.003 250.07 156.896C250.07 156.784 250.067 156.68 250.062 156.584C250.056 156.424 250.019 156.272 249.95 156.128C249.88 155.979 249.779 155.856 249.646 155.76C249.512 155.664 249.339 155.616 249.126 155.616C248.902 155.616 248.723 155.667 248.59 155.768C248.462 155.864 248.368 155.992 248.31 156.152C248.251 156.312 248.216 156.488 248.206 156.68C248.2 156.84 248.2 157 248.206 157.16C248.216 157.352 248.251 157.528 248.31 157.688C248.368 157.848 248.462 157.979 248.59 158.08C248.723 158.176 248.902 158.224 249.126 158.224Z" fill="#E91A1A"/>
<path d="M152.539 114.115C151.872 114.115 151.22 113.917 150.666 113.547C150.111 113.178 149.679 112.652 149.424 112.038C149.169 111.423 149.103 110.747 149.233 110.095C149.363 109.442 149.684 108.843 150.156 108.373C150.628 107.903 151.228 107.582 151.883 107.453C152.537 107.323 153.215 107.39 153.831 107.644C154.447 107.899 154.973 108.33 155.344 108.883C155.714 109.436 155.912 110.086 155.912 110.752C155.912 111.644 155.557 112.499 154.924 113.13C154.292 113.76 153.434 114.115 152.54 114.115H152.539ZM152.539 108.229C152.038 108.229 151.549 108.377 151.134 108.654C150.718 108.931 150.394 109.325 150.202 109.786C150.011 110.247 149.961 110.754 150.058 111.244C150.156 111.733 150.397 112.182 150.75 112.535C151.104 112.888 151.555 113.128 152.045 113.226C152.536 113.323 153.044 113.273 153.506 113.082C153.968 112.891 154.363 112.568 154.641 112.153C154.919 111.738 155.068 111.25 155.068 110.752C155.068 110.083 154.801 109.441 154.327 108.968C153.853 108.495 153.209 108.229 152.539 108.229Z" fill="#E6E6E6"/>
<path d="M152.539 125.046C151.872 125.046 151.22 124.848 150.666 124.479C150.111 124.109 149.679 123.583 149.424 122.969C149.169 122.354 149.103 121.678 149.233 121.026C149.363 120.373 149.684 119.774 150.156 119.304C150.628 118.834 151.228 118.514 151.883 118.384C152.537 118.254 153.215 118.321 153.831 118.575C154.447 118.83 154.973 119.261 155.344 119.814C155.714 120.367 155.912 121.018 155.912 121.683C155.912 122.575 155.557 123.43 154.924 124.061C154.292 124.692 153.434 125.046 152.54 125.046H152.539ZM152.539 119.16C152.038 119.16 151.549 119.308 151.134 119.585C150.718 119.862 150.394 120.256 150.202 120.717C150.011 121.178 149.961 121.685 150.058 122.175C150.156 122.664 150.397 123.114 150.75 123.466C151.104 123.819 151.555 124.059 152.045 124.157C152.536 124.254 153.044 124.204 153.506 124.013C153.968 123.822 154.363 123.499 154.641 123.084C154.919 122.669 155.068 122.182 155.068 121.683C155.068 121.014 154.801 120.372 154.327 119.899C153.853 119.426 153.209 119.16 152.539 119.16Z" fill="#E6E6E6"/>
<path d="M152.539 135.977C151.872 135.976 151.22 135.779 150.666 135.409C150.111 135.039 149.679 134.514 149.424 133.9C149.169 133.285 149.103 132.609 149.233 131.956C149.363 131.304 149.684 130.705 150.156 130.235C150.628 129.764 151.228 129.444 151.883 129.315C152.537 129.185 153.215 129.252 153.831 129.506C154.447 129.761 154.973 130.192 155.344 130.745C155.714 131.298 155.912 131.948 155.912 132.613C155.912 133.505 155.557 134.361 154.924 134.992C154.292 135.622 153.434 135.977 152.54 135.977H152.539ZM152.539 130.091C152.038 130.091 151.549 130.239 151.134 130.516C150.718 130.793 150.394 131.187 150.202 131.648C150.011 132.109 149.961 132.616 150.058 133.105C150.156 133.595 150.397 134.044 150.75 134.397C151.104 134.75 151.555 134.99 152.045 135.087C152.536 135.185 153.044 135.135 153.506 134.944C153.968 134.753 154.363 134.43 154.641 134.015C154.919 133.6 155.068 133.112 155.068 132.613C155.068 131.944 154.801 131.303 154.327 130.83C153.853 130.357 153.209 130.091 152.539 130.091Z" fill="#E91A1A"/>
<path d="M168.678 108.019C167.952 108.019 167.255 108.307 166.741 108.819C166.227 109.332 165.938 110.027 165.938 110.752C165.938 111.477 166.227 112.172 166.741 112.684C167.255 113.197 167.952 113.484 168.678 113.484H207.877C208.603 113.484 209.3 113.197 209.814 112.684C210.328 112.172 210.616 111.477 210.616 110.752C210.616 110.027 210.328 109.332 209.814 108.819C209.3 108.307 208.603 108.019 207.877 108.019H168.678Z" fill="#FFD8D8"/>
<path d="M168.679 118.95C167.958 118.959 167.27 119.251 166.764 119.762C166.258 120.274 165.974 120.964 165.974 121.682C165.974 122.401 166.258 123.091 166.764 123.603C167.27 124.114 167.958 124.406 168.679 124.415H207.877C208.604 124.415 209.301 124.127 209.815 123.615C210.328 123.102 210.617 122.407 210.617 121.682C210.617 120.958 210.328 120.263 209.815 119.75C209.301 119.238 208.604 118.95 207.877 118.95H168.679Z" fill="#FFD8D8"/>
<path d="M168.679 129.938C167.958 129.947 167.27 130.239 166.764 130.75C166.258 131.262 165.974 131.952 165.974 132.671C165.974 133.39 166.258 134.079 166.764 134.591C167.27 135.102 167.958 135.394 168.679 135.403H207.877C208.604 135.403 209.301 135.115 209.815 134.603C210.328 134.091 210.617 133.395 210.617 132.671C210.617 131.946 210.328 131.251 209.815 130.738C209.301 130.226 208.604 129.938 207.877 129.938H168.679Z" fill="#FFD8D8"/>
<path d="M261.915 114.115C261.248 114.115 260.596 113.918 260.042 113.548C259.487 113.178 259.055 112.653 258.8 112.039C258.544 111.424 258.478 110.748 258.608 110.095C258.738 109.443 259.059 108.844 259.531 108.373C260.002 107.903 260.603 107.583 261.257 107.453C261.911 107.323 262.589 107.39 263.205 107.644C263.821 107.899 264.348 108.33 264.719 108.883C265.089 109.436 265.287 110.086 265.287 110.752C265.287 111.644 264.932 112.499 264.299 113.13C263.667 113.76 262.809 114.115 261.915 114.115ZM261.915 108.229C261.415 108.229 260.926 108.377 260.51 108.654C260.094 108.931 259.77 109.325 259.578 109.786C259.387 110.247 259.337 110.754 259.435 111.244C259.532 111.733 259.773 112.182 260.127 112.535C260.48 112.888 260.931 113.128 261.422 113.226C261.912 113.323 262.421 113.273 262.883 113.082C263.345 112.891 263.74 112.568 264.018 112.153C264.295 111.738 264.444 111.25 264.444 110.752C264.444 110.42 264.378 110.092 264.251 109.786C264.124 109.48 263.938 109.202 263.703 108.968C263.468 108.734 263.189 108.548 262.883 108.421C262.576 108.294 262.247 108.229 261.915 108.229Z" fill="#E6E6E6"/>
<path d="M261.915 125.046C261.248 125.046 260.596 124.849 260.042 124.479C259.487 124.11 259.055 123.584 258.8 122.97C258.544 122.355 258.478 121.679 258.608 121.027C258.738 120.374 259.059 119.775 259.531 119.304C260.002 118.834 260.603 118.514 261.257 118.384C261.911 118.254 262.589 118.321 263.205 118.575C263.821 118.83 264.348 119.261 264.719 119.814C265.089 120.367 265.287 121.017 265.287 121.683C265.287 122.575 264.932 123.43 264.299 124.061C263.667 124.692 262.809 125.046 261.915 125.046ZM261.915 119.16C261.415 119.16 260.926 119.308 260.51 119.585C260.094 119.862 259.77 120.256 259.578 120.717C259.387 121.178 259.337 121.685 259.435 122.175C259.532 122.664 259.773 123.114 260.127 123.466C260.48 123.819 260.931 124.059 261.422 124.157C261.912 124.254 262.421 124.204 262.883 124.013C263.345 123.822 263.74 123.499 264.018 123.084C264.295 122.669 264.444 122.182 264.444 121.683C264.444 121.351 264.378 121.023 264.251 120.717C264.124 120.411 263.938 120.133 263.703 119.899C263.468 119.665 263.189 119.479 262.883 119.352C262.576 119.225 262.247 119.16 261.915 119.16Z" fill="#E91A1A"/>
<path d="M261.915 136.07C261.248 136.07 260.596 135.873 260.042 135.504C259.487 135.134 259.055 134.609 258.8 133.994C258.544 133.38 258.478 132.703 258.608 132.051C258.738 131.399 259.059 130.799 259.531 130.329C260.002 129.858 260.603 129.538 261.257 129.408C261.911 129.279 262.589 129.345 263.205 129.6C263.821 129.854 264.348 130.285 264.719 130.839C265.089 131.392 265.287 132.042 265.287 132.707C265.287 133.599 264.932 134.455 264.299 135.085C263.667 135.716 262.809 136.07 261.915 136.07ZM261.915 130.185C261.415 130.185 260.926 130.333 260.51 130.61C260.094 130.887 259.77 131.281 259.578 131.742C259.387 132.203 259.337 132.71 259.435 133.199C259.532 133.689 259.773 134.138 260.127 134.491C260.48 134.844 260.931 135.084 261.422 135.181C261.912 135.278 262.421 135.228 262.883 135.038C263.345 134.847 263.74 134.523 264.018 134.108C264.295 133.694 264.444 133.206 264.444 132.707C264.444 132.376 264.378 132.048 264.251 131.742C264.124 131.436 263.938 131.158 263.703 130.923C263.468 130.689 263.189 130.503 262.883 130.377C262.576 130.25 262.247 130.185 261.915 130.185Z" fill="#E6E6E6"/>
<path d="M277.932 108.019C277.205 108.019 276.509 108.307 275.995 108.819C275.481 109.332 275.192 110.027 275.192 110.752C275.192 111.477 275.481 112.172 275.995 112.684C276.509 113.197 277.205 113.484 277.932 113.484H317.131C317.857 113.484 318.554 113.197 319.068 112.684C319.582 112.172 319.87 111.477 319.87 110.752C319.87 110.027 319.582 109.332 319.068 108.819C318.554 108.307 317.857 108.019 317.131 108.019H277.932Z" fill="#FFD8D8"/>
<path d="M277.932 118.95C277.569 118.945 277.209 119.013 276.873 119.148C276.536 119.283 276.23 119.484 275.972 119.738C275.714 119.992 275.509 120.295 275.369 120.629C275.229 120.963 275.157 121.321 275.157 121.683C275.157 122.044 275.229 122.403 275.369 122.736C275.509 123.07 275.714 123.373 275.972 123.627C276.23 123.881 276.536 124.082 276.873 124.217C277.209 124.353 277.569 124.42 277.932 124.415H317.13C317.857 124.415 318.554 124.127 319.068 123.615C319.581 123.102 319.87 122.407 319.87 121.683C319.87 120.958 319.581 120.263 319.068 119.75C318.554 119.238 317.857 118.95 317.13 118.95H277.932Z" fill="#FFD8D8"/>
<path d="M277.932 129.938C277.569 129.933 277.209 130 276.873 130.136C276.536 130.271 276.23 130.472 275.972 130.726C275.714 130.98 275.509 131.283 275.369 131.617C275.229 131.95 275.157 132.309 275.157 132.67C275.157 133.032 275.229 133.39 275.369 133.724C275.509 134.058 275.714 134.361 275.972 134.615C276.23 134.869 276.536 135.07 276.873 135.205C277.209 135.34 277.569 135.408 277.932 135.403H317.13C317.857 135.403 318.554 135.115 319.068 134.603C319.581 134.09 319.87 133.395 319.87 132.67C319.87 131.946 319.581 131.251 319.068 130.738C318.554 130.226 317.857 129.938 317.13 129.938H277.932Z" fill="#FFD8D8"/>
<path d="M152.592 79.2207C151.866 79.2207 151.169 79.5086 150.655 80.0211C150.141 80.5336 149.853 81.2287 149.853 81.9534C149.853 82.6782 150.141 83.3732 150.655 83.8857C151.169 84.3982 151.866 84.6861 152.592 84.6861H199.378C200.104 84.6861 200.801 84.3982 201.315 83.8857C201.829 83.3732 202.117 82.6782 202.117 81.9534C202.117 81.2287 201.829 80.5336 201.315 80.0211C200.801 79.5086 200.104 79.2207 199.378 79.2207H152.592Z" fill="#FFD3D3"/>
<path d="M152.592 38.9775C151.866 38.9775 151.169 39.2654 150.655 39.7779C150.141 40.2904 149.853 40.9855 149.853 41.7102C149.853 42.435 150.141 43.1301 150.655 43.6426C151.169 44.155 151.866 44.4429 152.592 44.4429H199.378C200.104 44.4429 200.801 44.155 201.315 43.6426C201.829 43.1301 202.117 42.435 202.117 41.7102C202.117 40.9855 201.829 40.2904 201.315 39.7779C200.801 39.2654 200.104 38.9775 199.378 38.9775H152.592Z" fill="#E91A1A"/>
<path d="M207.072 80.1982C207.035 80.1982 206.999 80.2078 206.967 80.2263C206.935 80.2447 206.908 80.2713 206.89 80.3033C206.871 80.3353 206.861 80.3716 206.861 80.4085C206.861 80.4455 206.871 80.4817 206.89 80.5137L208.679 83.604C208.697 83.6359 208.724 83.6623 208.756 83.6807C208.788 83.6991 208.824 83.7088 208.861 83.7088C208.898 83.7088 208.935 83.6991 208.967 83.6807C208.999 83.6623 209.025 83.6359 209.044 83.604L210.833 80.5137C210.851 80.4817 210.861 80.4455 210.861 80.4085C210.861 80.3716 210.852 80.3353 210.833 80.3033C210.815 80.2713 210.788 80.2447 210.756 80.2263C210.724 80.2078 210.687 80.1982 210.65 80.1982H207.072Z" fill="#FFD3D3"/>
<path d="M261.757 79.2207C261.031 79.2207 260.334 79.5086 259.82 80.0211C259.306 80.5336 259.018 81.2287 259.018 81.9534C259.018 82.6782 259.306 83.3732 259.82 83.8857C260.334 84.3982 261.031 84.6861 261.757 84.6861H308.543C309.269 84.6861 309.966 84.3982 310.48 83.8857C310.994 83.3732 311.282 82.6782 311.282 81.9534C311.282 81.2287 310.994 80.5336 310.48 80.0211C309.966 79.5086 309.269 79.2207 308.543 79.2207H261.757Z" fill="#FFD3D3"/>
<path d="M316.237 80.1982C316.2 80.1982 316.164 80.2078 316.132 80.2263C316.1 80.2447 316.073 80.2713 316.055 80.3033C316.036 80.3353 316.026 80.3716 316.026 80.4085C316.026 80.4455 316.036 80.4817 316.055 80.5137L317.844 83.604C317.862 83.636 317.889 83.6625 317.921 83.681C317.953 83.6995 317.989 83.7092 318.027 83.7092C318.064 83.7092 318.1 83.6995 318.132 83.681C318.164 83.6625 318.191 83.636 318.209 83.604L319.998 80.5137C320.016 80.4817 320.026 80.4455 320.026 80.4085C320.026 80.3716 320.017 80.3353 319.998 80.3033C319.98 80.2713 319.953 80.2447 319.921 80.2263C319.889 80.2078 319.852 80.1982 319.815 80.1982H316.237Z" fill="#FFD3D3"/>
<path d="M261.915 123.364C262.847 123.364 263.601 122.611 263.601 121.683C263.601 120.754 262.847 120.001 261.915 120.001C260.984 120.001 260.229 120.754 260.229 121.683C260.229 122.611 260.984 123.364 261.915 123.364Z" fill="#E91A1A"/>
<path d="M152.539 134.353C153.471 134.353 154.225 133.6 154.225 132.671C154.225 131.742 153.471 130.989 152.539 130.989C151.608 130.989 150.854 131.742 150.854 132.671C150.854 133.6 151.608 134.353 152.539 134.353Z" fill="#E91A1A"/>
<path d="M95.7534 217.997H0.342358C0.250469 217.994 0.163419 217.955 0.0995565 217.889C0.0356943 217.823 0 217.735 0 217.643C0 217.552 0.0356943 217.463 0.0995565 217.397C0.163419 217.331 0.250469 217.293 0.342358 217.29H95.7534C95.8453 217.293 95.9323 217.331 95.9962 217.397C96.0601 217.463 96.0957 217.552 96.0957 217.643C96.0957 217.735 96.0601 217.823 95.9962 217.889C95.9323 217.955 95.8453 217.994 95.7534 217.997Z" fill="#E6E6E6"/>
<path d="M110.055 114.692L70.7023 142.202C69.9237 142.745 68.9611 142.958 68.0255 142.794C67.0899 142.629 66.2578 142.102 65.7117 141.326L63.0505 137.539C62.5062 136.762 62.293 135.802 62.4576 134.869C62.6221 133.936 63.151 133.106 63.9282 132.561L103.281 105.051C104.059 104.508 105.022 104.295 105.958 104.459C106.893 104.624 107.725 105.151 108.271 105.926L110.933 109.714C111.477 110.49 111.69 111.451 111.526 112.384C111.361 113.317 110.832 114.147 110.055 114.692Z" fill="#00B09C"/>
<path d="M119 29.75C126.042 29.75 131.75 24.0416 131.75 17C131.75 9.95837 126.042 4.25 119 4.25C111.958 4.25 106.25 9.95837 106.25 17C106.25 24.0416 111.958 29.75 119 29.75Z" fill="#FFF4F4"/>
<path d="M124.994 11L112.994 23" stroke="#E91A1A" stroke-width="2" stroke-linecap="round" stroke-linejoin="round"/>
<path d="M112.994 11L124.994 23" stroke="#E91A1A" stroke-width="2" stroke-linecap="round" stroke-linejoin="round"/>
<path d="M131.75 17C131.75 19.664 130.916 22.2611 129.364 24.4266C127.812 26.5921 125.621 28.217 123.098 29.0734C120.576 29.9296 117.848 29.9743 115.299 29.201C112.75 28.4277 110.507 26.8752 108.885 24.7618C107.263 22.6483 106.344 20.0798 106.257 17.4172C106.17 14.7546 106.919 12.1315 108.399 9.91648C109.879 7.70143 112.016 6.00561 114.509 5.06721C117.002 4.12879 119.727 3.99495 122.3 4.68445" stroke="#E91A1A" stroke-width="2" stroke-linecap="round"/>
</svg>
