<svg width="331" height="289" viewBox="0 0 331 289" fill="none" xmlns="http://www.w3.org/2000/svg">
<path d="M44.6275 211.236C46.1465 211.236 47.3779 210.005 47.3779 208.486C47.3779 206.967 46.1465 205.735 44.6275 205.735C43.1084 205.735 41.877 206.967 41.877 208.486C41.877 210.005 43.1084 211.236 44.6275 211.236Z" fill="#CFCFCF"/>
<path d="M44.6275 211.236C46.1465 211.236 47.3779 210.005 47.3779 208.486C47.3779 206.967 46.1465 205.735 44.6275 205.735C43.1084 205.735 41.877 206.967 41.877 208.486C41.877 210.005 43.1084 211.236 44.6275 211.236Z" fill="#71CFF5"/>
<path d="M284.709 67.4268V79.4953" stroke="#71CFF5" stroke-linecap="round" stroke-linejoin="round"/>
<path d="M278.674 73.459H290.742" stroke="#71CFF5" stroke-linecap="round" stroke-linejoin="round"/>
<path d="M290.209 249.126V261.194" stroke="#71CFF5" stroke-linecap="round" stroke-linejoin="round"/>
<path d="M284.174 255.161H296.242" stroke="#71CFF5" stroke-linecap="round" stroke-linejoin="round"/>
<path d="M79.2051 21.6768V33.7453" stroke="#71CFF5" stroke-linecap="round" stroke-linejoin="round"/>
<path d="M73.1729 27.7119H85.2414" stroke="#71CFF5" stroke-linecap="round" stroke-linejoin="round"/>
<path d="M222.99 96.2766C199.499 96.2766 175.586 95.3224 153.217 89.0917C131.27 83.0013 111.118 71.1854 93.1555 57.5171C81.3957 48.62 70.7024 41.5193 55.4344 42.5858C40.4976 43.3941 26.2139 48.9718 14.6821 58.4994C-4.73982 75.5076 -1.82092 107.026 5.95345 129.086C17.629 162.401 53.161 185.612 83.3603 200.627C118.247 218.056 156.585 228.188 195.008 233.998C228.688 239.134 271.966 242.839 301.155 220.863C327.958 200.627 335.312 154.486 328.744 123.333C327.151 114.129 322.25 105.825 314.964 99.9814C296.131 86.2008 268.037 95.4066 246.875 95.8557C239.016 96.0241 231.017 96.2205 222.99 96.2766Z" fill="#F2F7FF"/>
<path d="M187.687 237.48C205.187 237.48 219.374 223.293 219.374 205.793C219.374 188.293 205.187 174.106 187.687 174.106C170.187 174.106 156 188.293 156 205.793C156 223.293 170.187 237.48 187.687 237.48Z" fill="#0666A3"/>
<path d="M141.327 2.97417C143.079 2.58353 144.891 2.54179 146.659 2.85132C148.427 3.16085 150.117 3.81559 151.632 4.77816C153.147 5.74074 154.457 6.99229 155.489 8.46136C156.52 9.93044 157.252 11.5883 157.642 13.3402L162.706 36.0495L135.97 42.011L130.906 19.3017C130.515 17.5452 130.474 15.7286 130.786 13.9562C131.098 12.1838 131.757 10.4905 132.725 8.97345C133.694 7.45641 134.952 6.14552 136.428 5.11601C137.904 4.08649 139.569 3.35862 141.327 2.97417Z" fill="#0666A3"/>
<path d="M266.241 186.118L103.765 222.324C102.756 222.55 101.705 222.51 100.716 222.206C99.7273 221.903 98.8347 221.347 98.1264 220.593C97.4181 219.839 96.9184 218.914 96.6767 217.908C96.4351 216.903 96.4597 215.852 96.7483 214.858L97.4219 212.529C103.035 192.63 107.919 170.71 103.428 150.502L93.8294 107.392C85.7463 71.1587 107.47 34.2515 143.507 25.3545C152.294 23.173 161.429 22.7713 170.375 24.1729C179.32 25.5746 187.894 28.7513 195.593 33.5162C203.292 38.281 209.96 44.5378 215.205 51.9181C220.45 59.2985 224.166 67.6535 226.134 76.4913L236.041 121.061C240.56 141.268 254.2 159.119 267.841 174.667L269.44 176.492C270.088 177.273 270.526 178.206 270.714 179.204C270.901 180.201 270.831 181.23 270.511 182.193C270.191 183.156 269.631 184.021 268.884 184.708C268.137 185.395 267.227 185.88 266.241 186.118Z" fill="white" stroke="#0666A3" stroke-linecap="round" stroke-linejoin="round"/>
<path d="M149.06 158.332C149.016 151.777 151.218 145.404 155.301 140.275C159.384 135.145 165.1 131.57 171.498 130.142C177.896 128.715 184.591 129.522 190.466 132.43C196.341 135.338 201.044 140.17 203.79 146.123" stroke="#00B09C" stroke-linecap="round" stroke-linejoin="round"/>
<path d="M196.188 105.31C198.112 105.31 199.673 106.87 199.673 108.795C199.673 110.72 198.112 112.28 196.188 112.28C194.263 112.28 192.702 110.72 192.702 108.795C192.702 106.87 194.263 105.31 196.188 105.31Z" fill="#00B09C" stroke="#00B09C"/>
<path d="M134.385 119.09C136.31 119.09 137.87 120.65 137.87 122.575C137.87 124.5 136.31 126.061 134.385 126.061C132.46 126.061 130.899 124.5 130.899 122.575C130.899 120.65 132.46 119.09 134.385 119.09Z" fill="#00B09C" stroke="#00B09C"/>
<path d="M166.633 288.616C223.536 288.616 269.664 285.739 269.664 282.189C269.664 278.639 223.536 275.762 166.633 275.762C109.73 275.762 63.6016 278.639 63.6016 282.189C63.6016 285.739 109.73 288.616 166.633 288.616Z" fill="#F2F2F2"/>
<path d="M265.061 60.577C265.053 69.1126 261.659 77.2964 255.624 83.332C249.588 89.3676 241.404 92.7616 232.869 92.7691C231.819 92.7689 230.769 92.7127 229.725 92.6007L213.183 100.177L217.208 88.6714C212.25 85.9107 208.11 81.8887 205.207 77.0126C202.304 72.1366 200.742 66.58 200.679 60.9057C200.615 55.2315 202.053 49.6413 204.846 44.7015C207.639 39.7618 211.688 35.6481 216.582 32.7772C221.477 29.9064 227.044 28.3804 232.718 28.3539C238.393 28.3274 243.974 29.8013 248.895 32.6263C253.817 35.4513 257.904 39.5271 260.743 44.4405C263.582 49.3539 265.071 54.9305 265.061 60.6051V60.577Z" fill="#00B09C"/>
<path d="M219.117 63.8327C220.915 63.8327 222.373 62.3751 222.373 60.577C222.373 58.7789 220.915 57.3213 219.117 57.3213C217.319 57.3213 215.861 58.7789 215.861 60.577C215.861 62.3751 217.319 63.8327 219.117 63.8327Z" fill="white" stroke="white" stroke-miterlimit="10"/>
<path d="M232.87 63.8327C234.668 63.8327 236.126 62.3751 236.126 60.577C236.126 58.7789 234.668 57.3213 232.87 57.3213C231.072 57.3213 229.614 58.7789 229.614 60.577C229.614 62.3751 231.072 63.8327 232.87 63.8327Z" fill="white" stroke="white" stroke-miterlimit="10"/>
<path d="M246.621 63.8327C248.419 63.8327 249.877 62.3751 249.877 60.577C249.877 58.7789 248.419 57.3213 246.621 57.3213C244.823 57.3213 243.365 58.7789 243.365 60.577C243.365 62.3751 244.823 63.8327 246.621 63.8327Z" fill="white" stroke="white" stroke-miterlimit="10"/>
</svg>
