<svg width="348" height="348" viewBox="0 0 348 348" fill="none" xmlns="http://www.w3.org/2000/svg">
<path d="M173.607 347.213C269.487 347.213 347.213 269.487 347.213 173.607C347.213 77.7263 269.487 0 173.607 0C77.7263 0 0 77.7263 0 173.607C0 269.487 77.7263 347.213 173.607 347.213Z" fill="#E3FFFC"/>
<path d="M219.239 9.63574H207.859V27.6897H169.788V9.63574H158.409V27.6897H120.338V9.63574H108.958V257.782H120.338V247.419H158.409V257.782H169.788V247.419H207.859V257.782H219.239V247.419V9.63574H219.239ZM158.409 215.501H120.338V180.87H158.409V215.501ZM158.409 169.906H120.338V135.275H158.409V169.906ZM158.409 124.311H120.338V89.6805H158.409V124.311ZM158.409 78.7156H120.338V43.9425H158.409V78.7156ZM207.859 215.501H169.788V180.87H207.859V215.501ZM207.859 169.906H169.788V135.275H207.859V169.906ZM207.859 124.311H169.788V89.6805H207.859V124.311ZM207.859 78.7156H169.788V43.9425H207.859V78.7156Z" fill="#ABABAB"/>
<path d="M220.042 207.491H99.6816V267.312H220.042V207.491Z" fill="#ABABAB"/>
<path d="M1.39746 300.533L139.308 299.956V41.5967H1.39746V300.533Z" fill="#5E6F78"/>
<path d="M22.6885 300.533H148.371L148.371 41.5968H22.6885L22.6885 300.533Z" fill="#7D8B93"/>
<path d="M30.7246 52.0254H148.514L150.64 41.6232L30.7339 41.5967L30.7246 52.0254Z" fill="#7D8B93"/>
<path d="M109.532 188.297H140.104V160.387H109.532V188.297Z" fill="#F7F1EB"/>
<path d="M125.413 190.644C125.181 190.644 124.994 190.457 124.994 190.226V158.456C124.994 158.225 125.181 158.038 125.413 158.038C125.644 158.038 125.831 158.225 125.831 158.456V190.226C125.831 190.457 125.644 190.644 125.413 190.644Z" fill="#747474"/>
<path d="M142.813 174.761H108.013C107.782 174.761 107.595 174.573 107.595 174.342C107.595 174.111 107.782 173.924 108.013 173.924H142.813C143.045 173.924 143.232 174.111 143.232 174.342C143.232 174.573 143.044 174.761 142.813 174.761Z" fill="#747474"/>
<path d="M70.1278 188.297H100.7V160.387H70.1278V188.297Z" fill="#F7F1EB"/>
<path d="M85.9408 190.644C85.7095 190.644 85.5225 190.457 85.5225 190.226V158.456C85.5225 158.225 85.7095 158.038 85.9408 158.038C86.1721 158.038 86.3592 158.225 86.3592 158.456V190.226C86.3592 190.457 86.1721 190.644 85.9408 190.644Z" fill="#747474"/>
<path d="M103.34 174.761H68.5395C68.3082 174.761 68.1211 174.573 68.1211 174.342C68.1211 174.111 68.3082 173.924 68.5395 173.924H103.34C103.571 173.924 103.758 174.111 103.758 174.342C103.758 174.573 103.571 174.761 103.34 174.761Z" fill="#747474"/>
<path d="M30.7245 188.297H61.2969V160.387H30.7245L30.7245 188.297Z" fill="#F7F1EB"/>
<path d="M45.85 190.644C45.6187 190.644 45.4316 190.457 45.4316 190.226V158.456C45.4316 158.225 45.6187 158.038 45.85 158.038C46.0813 158.038 46.2684 158.225 46.2684 158.456V190.226C46.2684 190.457 46.0811 190.644 45.85 190.644Z" fill="#747474"/>
<path d="M63.2497 174.761H28.4496C28.2183 174.761 28.0312 174.573 28.0312 174.342C28.0312 174.111 28.2183 173.924 28.4496 173.924H63.2497C63.4809 173.924 63.668 174.111 63.668 174.342C63.668 174.573 63.4809 174.761 63.2497 174.761Z" fill="#747474"/>
<path d="M109.532 141.695H140.104V113.785H109.532V141.695Z" fill="#F7F1EB"/>
<path d="M125.413 144.044C125.181 144.044 124.994 143.857 124.994 143.626V111.857C124.994 111.626 125.181 111.438 125.413 111.438C125.644 111.438 125.831 111.626 125.831 111.857V143.626C125.831 143.857 125.644 144.044 125.413 144.044Z" fill="#747474"/>
<path d="M142.813 128.159H108.013C107.782 128.159 107.595 127.972 107.595 127.741C107.595 127.509 107.782 127.322 108.013 127.322H142.813C143.045 127.322 143.232 127.509 143.232 127.741C143.232 127.972 143.044 128.159 142.813 128.159Z" fill="#747474"/>
<path d="M70.1278 141.695H100.7V113.785H70.1278V141.695Z" fill="#F7F1EB"/>
<path d="M85.9408 144.044C85.7095 144.044 85.5225 143.857 85.5225 143.626V111.857C85.5225 111.626 85.7095 111.438 85.9408 111.438C86.1721 111.438 86.3592 111.626 86.3592 111.857V143.626C86.3592 143.857 86.1721 144.044 85.9408 144.044Z" fill="#747474"/>
<path d="M103.34 128.159H68.5395C68.3082 128.159 68.1211 127.972 68.1211 127.741C68.1211 127.509 68.3082 127.322 68.5395 127.322H103.34C103.571 127.322 103.758 127.509 103.758 127.741C103.758 127.972 103.571 128.159 103.34 128.159Z" fill="#747474"/>
<path d="M30.7245 141.695H61.2969V113.785H30.7245L30.7245 141.695Z" fill="#F7F1EB"/>
<path d="M45.85 144.044C45.6187 144.044 45.4316 143.857 45.4316 143.626V111.857C45.4316 111.626 45.6187 111.438 45.85 111.438C46.0813 111.438 46.2684 111.626 46.2684 111.857V143.626C46.2684 143.857 46.0811 144.044 45.85 144.044Z" fill="#747474"/>
<path d="M63.2497 128.159H28.4496C28.2183 128.159 28.0312 127.972 28.0312 127.741C28.0312 127.509 28.2183 127.322 28.4496 127.322H63.2497C63.4809 127.322 63.668 127.509 63.668 127.741C63.668 127.972 63.4809 128.159 63.2497 128.159Z" fill="#747474"/>
<path d="M109.532 95.0947H140.104V67.1849H109.532V95.0947Z" fill="#F7F1EB"/>
<path d="M125.413 97.4429C125.181 97.4429 124.994 97.2558 124.994 97.0245V65.2553C124.994 65.024 125.181 64.8369 125.413 64.8369C125.644 64.8369 125.831 65.024 125.831 65.2553V97.0245C125.831 97.2558 125.644 97.4429 125.413 97.4429Z" fill="#747474"/>
<path d="M142.813 81.5584H108.013C107.782 81.5584 107.595 81.3713 107.595 81.14C107.595 80.9088 107.782 80.7217 108.013 80.7217H142.813C143.045 80.7217 143.232 80.9088 143.232 81.14C143.232 81.3713 143.044 81.5584 142.813 81.5584Z" fill="#747474"/>
<path d="M70.1278 95.0947H100.7V67.1849H70.1278V95.0947Z" fill="#F7F1EB"/>
<path d="M85.9408 97.4429C85.7095 97.4429 85.5225 97.2558 85.5225 97.0245V65.2553C85.5225 65.024 85.7095 64.8369 85.9408 64.8369C86.1721 64.8369 86.3592 65.024 86.3592 65.2553V97.0245C86.3592 97.2558 86.1721 97.4429 85.9408 97.4429Z" fill="#747474"/>
<path d="M103.34 81.5584H68.5395C68.3082 81.5584 68.1211 81.3713 68.1211 81.14C68.1211 80.9088 68.3082 80.7217 68.5395 80.7217H103.34C103.571 80.7217 103.758 80.9088 103.758 81.14C103.758 81.3713 103.571 81.5584 103.34 81.5584Z" fill="#747474"/>
<path d="M30.7245 95.0947H61.2969V67.1849H30.7245L30.7245 95.0947Z" fill="#F7F1EB"/>
<path d="M45.85 97.4429C45.6187 97.4429 45.4316 97.2558 45.4316 97.0245V65.2553C45.4316 65.024 45.6187 64.8369 45.85 64.8369C46.0813 64.8369 46.2684 65.024 46.2684 65.2553V97.0245C46.2684 97.2558 46.0811 97.4429 45.85 97.4429Z" fill="#747474"/>
<path d="M63.2497 81.5584H28.4496C28.2183 81.5584 28.0312 81.3713 28.0312 81.14C28.0312 80.9088 28.2183 80.7217 28.4496 80.7217H63.2497C63.4809 80.7217 63.668 80.9088 63.668 81.14C63.668 81.3713 63.4809 81.5584 63.2497 81.5584Z" fill="#747474"/>
<path d="M109.532 235.142H140.104V207.232H109.532V235.142Z" fill="#F7F1EB"/>
<path d="M125.413 237.245C125.181 237.245 124.994 237.058 124.994 236.826V205.057C124.994 204.826 125.181 204.639 125.413 204.639C125.644 204.639 125.831 204.826 125.831 205.057V236.826C125.831 237.058 125.644 237.245 125.413 237.245Z" fill="#747474"/>
<path d="M142.813 221.36H108.013C107.782 221.36 107.595 221.173 107.595 220.942C107.595 220.711 107.782 220.523 108.013 220.523H142.813C143.045 220.523 143.232 220.711 143.232 220.942C143.232 221.173 143.044 221.36 142.813 221.36Z" fill="#747474"/>
<path d="M70.1278 235.142H100.7V207.232H70.1278V235.142Z" fill="#F7F1EB"/>
<path d="M85.9408 237.245C85.7095 237.245 85.5225 237.058 85.5225 236.826V205.057C85.5225 204.826 85.7095 204.639 85.9408 204.639C86.1721 204.639 86.3592 204.826 86.3592 205.057V236.826C86.3592 237.058 86.1721 237.245 85.9408 237.245Z" fill="#747474"/>
<path d="M103.34 221.36H68.5395C68.3082 221.36 68.1211 221.173 68.1211 220.942C68.1211 220.711 68.3082 220.523 68.5395 220.523H103.34C103.571 220.523 103.758 220.711 103.758 220.942C103.758 221.173 103.571 221.36 103.34 221.36Z" fill="#747474"/>
<path d="M30.7245 235.142H61.2969V207.232H30.7245L30.7245 235.142Z" fill="#F7F1EB"/>
<path d="M45.85 237.245C45.6187 237.245 45.4316 237.058 45.4316 236.826V205.057C45.4316 204.826 45.6187 204.639 45.85 204.639C46.0813 204.639 46.2684 204.826 46.2684 205.057V236.826C46.2684 237.058 46.0811 237.245 45.85 237.245Z" fill="#747474"/>
<path d="M63.2497 221.36H28.4496C28.2183 221.36 28.0312 221.173 28.0312 220.942C28.0312 220.711 28.2183 220.523 28.4496 220.523H63.2497C63.4809 220.523 63.668 220.711 63.668 220.942C63.668 221.173 63.4809 221.36 63.2497 221.36Z" fill="#747474"/>
<path d="M30.7242 52.0263L30.5986 51.3985L30.7242 41.5976L35.1485 41.583L30.7242 52.0263Z" fill="#7D8B93"/>
<path d="M30.7245 58.5937L148.371 58.5938V52.0259L30.7245 52.0259V58.5937Z" fill="#5E6F78"/>
<path d="M126.144 254.51H98.5352V300.942H126.144V254.51Z" fill="#3D5767"/>
<path d="M230.607 67.4636H209.189C208.958 67.4636 208.771 67.2766 208.771 67.0453V44.724C208.771 44.4927 208.958 44.3057 209.189 44.3057H230.607C230.838 44.3057 231.025 44.4927 231.025 44.724V67.0455C231.025 67.2766 230.838 67.4636 230.607 67.4636ZM209.607 66.6271H230.188V45.1424H209.607V66.6271Z" fill="#0666A3"/>
<path d="M209.188 61.7637C209.156 61.7637 209.125 61.7601 209.093 61.7527L170.797 52.8024C170.608 52.7582 170.474 52.5895 170.474 52.395V48.0941C170.474 47.8629 170.661 47.6758 170.892 47.6758H209.188C209.42 47.6758 209.607 47.8629 209.607 48.0941V61.3454C209.607 61.4732 209.548 61.5937 209.448 61.673C209.374 61.7322 209.282 61.7637 209.188 61.7637ZM171.31 52.0632L208.77 60.8179V48.5123H171.31V52.0632Z" fill="#0666A3"/>
<path d="M169.568 55.1384H165.097C164.866 55.1384 164.679 54.9513 164.679 54.72V48.0941C164.679 47.8629 164.866 47.6758 165.097 47.6758H169.568C169.799 47.6758 169.986 47.8629 169.986 48.0941V54.72C169.986 54.9513 169.799 55.1384 169.568 55.1384ZM165.515 54.3019H169.149V48.5127H165.515V54.3019Z" fill="#0666A3"/>
<path d="M167.332 64.7555C165.703 64.7555 164.378 63.4319 164.378 61.8047C164.378 61.5734 164.565 61.3863 164.796 61.3863C165.028 61.3863 165.215 61.5734 165.215 61.8047C165.215 62.9706 166.165 63.9189 167.332 63.9189C168.5 63.9189 169.45 62.9708 169.45 61.8047C169.45 60.6388 168.5 59.6901 167.332 59.6901C167.101 59.6901 166.914 59.5031 166.914 59.2718V55.4945C166.914 55.2633 167.101 55.0762 167.332 55.0762C167.564 55.0762 167.751 55.2633 167.751 55.4945V58.8828C169.183 59.0866 170.287 60.3191 170.287 61.8045C170.287 63.4319 168.962 64.7555 167.332 64.7555Z" fill="#0666A3"/>
<path d="M222.783 150.696C222.551 150.696 222.364 150.509 222.364 150.277V67.0443C222.364 66.8131 222.551 66.626 222.783 66.626H240.255C240.486 66.626 240.673 66.8131 240.673 67.0443V137.627C240.673 137.859 240.486 138.046 240.255 138.046C240.024 138.046 239.836 137.859 239.836 137.627V67.4625H223.201V150.277C223.201 150.509 223.014 150.696 222.783 150.696Z" fill="#0666A3"/>
<path d="M226.241 59.4387H213.553C213.322 59.4387 213.135 59.2516 213.135 59.0203V50.4184C213.135 50.1871 213.322 50 213.553 50H226.241C226.472 50 226.659 50.1871 226.659 50.4184V59.0203C226.659 59.2514 226.472 59.4387 226.241 59.4387ZM213.971 58.602H225.823V50.8367H213.971V58.602Z" fill="#0666A3"/>
<path d="M240.255 126.198C240.141 126.198 240.027 126.152 239.945 126.06L222.472 106.683C222.329 106.524 222.328 106.284 222.471 106.124L239.696 86.8462L222.469 67.3209C222.316 67.1476 222.332 66.8833 222.506 66.7306C222.679 66.5778 222.943 66.5942 223.096 66.7678L240.569 86.5714C240.709 86.7299 240.708 86.9689 240.567 87.1266L223.345 106.402L240.565 125.5C240.72 125.671 240.706 125.936 240.535 126.09C240.455 126.162 240.355 126.198 240.255 126.198Z" fill="#0666A3"/>
<path d="M222.782 145.784C222.683 145.784 222.584 145.749 222.504 145.678C222.331 145.524 222.317 145.259 222.47 145.087L239.943 125.532C240.097 125.358 240.361 125.344 240.533 125.498C240.706 125.652 240.721 125.917 240.567 126.089L223.095 145.644C223.012 145.737 222.897 145.784 222.782 145.784Z" fill="#0666A3"/>
<path d="M240.255 87.2664H222.783C222.551 87.2664 222.364 87.0793 222.364 86.8481C222.364 86.6168 222.551 86.4297 222.783 86.4297H240.255C240.486 86.4297 240.673 86.6168 240.673 86.8481C240.673 87.0793 240.486 87.2664 240.255 87.2664Z" fill="#0666A3"/>
<path d="M240.255 106.849H222.783C222.551 106.849 222.364 106.662 222.364 106.431C222.364 106.2 222.551 106.013 222.783 106.013H240.255C240.486 106.013 240.673 106.2 240.673 106.431C240.673 106.662 240.486 106.849 240.255 106.849Z" fill="#0666A3"/>
<path d="M240.136 126.199H222.783C222.551 126.199 222.364 126.012 222.364 125.781C222.364 125.549 222.551 125.362 222.783 125.362H240.136C240.368 125.362 240.555 125.549 240.555 125.781C240.555 126.012 240.368 126.199 240.136 126.199Z" fill="#0666A3"/>
<path d="M194.915 88.1468C194.805 88.1468 194.695 88.1035 194.613 88.0174L170.59 62.8735C170.43 62.7063 170.436 62.4416 170.603 62.2823C170.77 62.1221 171.035 62.1282 171.194 62.2957L195.218 87.4397C195.377 87.6068 195.371 87.8715 195.204 88.0309C195.123 88.1085 195.019 88.1468 194.915 88.1468Z" fill="#0666A3"/>
<path d="M139.748 88.1473C139.644 88.1473 139.54 88.109 139.459 88.0314C139.292 87.872 139.286 87.6073 139.446 87.4401L163.469 62.2962C163.629 62.1296 163.894 62.123 164.061 62.2828C164.228 62.4421 164.234 62.7068 164.074 62.874L140.051 88.0179C139.969 88.104 139.859 88.1473 139.748 88.1473Z" fill="#0666A3"/>
<path d="M199.705 86.6807H134.293V92.8442H199.705V86.6807Z" fill="#363E44"/>
<path d="M230.606 67.4629C230.427 67.4629 230.261 67.3473 230.206 67.1671C230.138 66.9464 230.262 66.7123 230.483 66.6446L275.195 52.924V48.3182H230.606C230.375 48.3182 230.188 48.1311 230.188 47.8998C230.188 47.6685 230.375 47.4814 230.606 47.4814H275.613C275.844 47.4814 276.031 47.6685 276.031 47.8998V53.233C276.031 53.4169 275.911 53.5791 275.736 53.633L230.729 67.4445C230.688 67.4572 230.646 67.4629 230.606 67.4629Z" fill="#0666A3"/>
<path d="M283.228 59.4392H280.78C280.669 59.4392 280.562 59.395 280.484 59.317L275.842 54.6814C275.679 54.518 275.679 54.2534 275.842 54.0894C276.005 53.9261 276.271 53.9264 276.434 54.089L280.953 58.6024H282.809V46.0105H276.138C275.907 46.0105 275.72 45.8235 275.72 45.5922C275.72 45.3609 275.907 45.1738 276.138 45.1738H283.228C283.459 45.1738 283.646 45.3609 283.646 45.5922V59.0208C283.646 59.2519 283.459 59.4392 283.228 59.4392Z" fill="#0666A3"/>
<path d="M329.026 140.104H214.687V221.316H329.026V140.104Z" fill="white"/>
<path d="M328.548 224.49H244.933C244.701 224.49 244.514 224.303 244.514 224.072C244.514 223.84 244.701 223.653 244.933 223.653H328.129V141.082H215.288L215.162 173.817C215.161 174.047 214.974 174.234 214.744 174.234C214.743 174.234 214.742 174.234 214.742 174.234C214.511 174.233 214.324 174.045 214.325 173.814L214.453 140.662C214.454 140.431 214.641 140.245 214.871 140.245H328.548C328.779 140.245 328.966 140.432 328.966 140.663V224.071C328.966 224.303 328.779 224.49 328.548 224.49Z" fill="#84524D"/>
<path d="M329.026 140.104H214.268V147.311H329.026V140.104Z" fill="#5E6F78"/>
<path d="M221.105 144.022C221.25 143.129 220.643 142.287 219.75 142.142C218.856 141.997 218.014 142.604 217.869 143.497C217.724 144.391 218.331 145.233 219.224 145.378C220.118 145.523 220.96 144.916 221.105 144.022Z" fill="white"/>
<path d="M226.372 144.16C226.58 143.279 226.034 142.396 225.153 142.188C224.272 141.98 223.389 142.526 223.181 143.407C222.973 144.288 223.519 145.171 224.4 145.379C225.281 145.587 226.164 145.041 226.372 144.16Z" fill="white"/>
<path d="M231.67 144.16C231.878 143.279 231.332 142.396 230.451 142.188C229.57 141.98 228.687 142.526 228.479 143.407C228.271 144.288 228.817 145.171 229.698 145.379C230.579 145.587 231.462 145.041 231.67 144.16Z" fill="white"/>
<path d="M322.564 216.147H223.214V150.805C223.214 150.574 223.401 150.387 223.632 150.387C223.864 150.387 224.051 150.574 224.051 150.805V215.311H322.564C322.796 215.311 322.983 215.498 322.983 215.729C322.983 215.96 322.796 216.147 322.564 216.147Z" fill="#AEE6E0"/>
<path d="M247.093 193.104H234.408V205.5H247.093V193.104Z" fill="#AEE6E0"/>
<path d="M268.025 183.268H255.341V205.5H268.025V183.268Z" fill="#AEE6E0"/>
<path d="M288.958 170.579H276.273V205.499H288.958V170.579Z" fill="#AEE6E0"/>
<path d="M309.892 159.479H297.207V205.5H309.892V159.479Z" fill="#AEE6E0"/>
<path d="M313.889 142.944L304.031 110.106L275.41 128.981L283.263 131.831C281.244 138.731 277.192 148.38 268.853 157.317C252.082 175.294 230.323 177.153 225.202 177.455C228.973 178.683 255.31 186.775 280.391 171.048C295.499 161.575 302.757 148.096 305.996 140.079L313.889 142.944Z" fill="#00B09C"/>
<path d="M310.02 90.1108C310.458 87.1825 303.315 83.6899 294.067 82.3097C284.82 80.9296 276.969 82.1846 276.532 85.1129C276.095 88.0412 283.237 91.5339 292.485 92.914C301.732 94.2942 309.583 93.0391 310.02 90.1108Z" fill="#DEC41E"/>
<path d="M310.805 84.8026L277.316 79.8047L276.501 85.2675L309.99 90.2654L310.805 84.8026Z" fill="#DEC41E"/>
<path d="M310.793 84.9312C311.23 82.0029 304.088 78.5102 294.84 77.13C285.592 75.7499 277.741 77.0049 277.304 79.9332C276.867 82.8615 284.009 86.3542 293.257 87.7343C302.505 89.1145 310.356 87.8595 310.793 84.9312Z" fill="#FBDE24"/>
<path d="M302.392 88.9811C300.083 88.9811 297.606 88.7923 295.18 88.4305C290.666 87.7563 286.5 86.5639 283.449 85.072C280.258 83.5118 278.633 81.7649 278.874 80.1533C279.408 76.5755 288.452 75.7395 296.886 76.9979C301.4 77.672 305.566 78.8645 308.617 80.3563C311.808 81.9165 313.433 83.6634 313.192 85.275C312.812 87.8237 308.113 88.9811 302.392 88.9811ZM289.57 77.2589C283.738 77.2589 279.959 78.5506 279.702 80.2767C279.522 81.4798 281.022 82.9536 283.816 84.3203C286.793 85.7759 290.872 86.9414 295.303 87.6027C305.074 89.0608 312.012 87.512 312.364 85.1515C312.544 83.9484 311.044 82.4743 308.249 81.1079C305.274 79.6522 301.194 78.4869 296.763 77.8255C294.137 77.4337 291.714 77.2589 289.57 77.2589Z" fill="white"/>
<path d="M316.221 60.4178C325.41 58.6898 332.417 54.9301 331.869 52.0201C331.322 49.1102 323.429 48.152 314.239 49.88C305.049 51.608 298.043 55.3678 298.59 58.2777C299.138 61.1876 307.031 62.1458 316.221 60.4178Z" fill="#DEC41E"/>
<path d="M330.882 46.7697L297.603 53.0273L298.623 58.4559L331.902 52.1983L330.882 46.7697Z" fill="#DEC41E"/>
<path d="M315.253 55.2713C324.443 53.5433 331.449 49.7836 330.902 46.8736C330.354 43.9637 322.461 43.0055 313.271 44.7335C304.082 46.4615 297.075 50.2213 297.623 53.1312C298.17 56.0412 306.063 56.9993 315.253 55.2713Z" fill="#FBDE24"/>
<path d="M308.593 56.1674C303.567 56.1674 299.597 55.1492 299.163 52.8419C298.495 49.2865 306.764 45.5322 315.145 43.9565C319.631 43.1133 323.959 42.8738 327.329 43.2827C330.855 43.7108 332.962 44.8287 333.263 46.43C333.932 49.9854 325.662 53.7401 317.281 55.3158C314.339 55.8691 311.311 56.1674 308.593 56.1674ZM323.833 43.9238C321.232 43.9238 318.305 44.2135 315.3 44.7784C305.593 46.6036 299.544 50.3412 299.985 52.6874C300.427 55.0331 307.419 56.3197 317.127 54.4939C326.834 52.6687 332.882 48.9305 332.441 46.5845C332.216 45.3888 330.316 44.4883 327.228 44.1134C326.184 43.9868 325.044 43.9238 323.833 43.9238Z" fill="white"/>
<path d="M333.448 103.152C341.485 98.3747 346.775 92.4387 345.262 89.8936C343.75 87.3484 336.007 89.1578 327.97 93.9351C319.932 98.7123 314.642 104.648 316.155 107.193C317.668 109.739 325.41 107.929 333.448 103.152Z" fill="#DEC41E"/>
<path d="M342.533 85.3027L313.426 102.603L316.248 107.351L345.355 90.0508L342.533 85.3027Z" fill="#DEC41E"/>
<path d="M330.773 98.6509C338.811 93.8737 344.1 87.9378 342.588 85.3926C341.075 82.8474 333.333 84.6569 325.295 89.4341C317.257 94.2113 311.968 100.147 313.48 102.692C314.993 105.238 322.735 103.428 330.773 98.6509Z" fill="#FBDE24"/>
<path d="M318.172 103.244C316.591 103.244 315.408 102.83 314.85 101.89C313.002 98.7804 319.48 92.4152 326.811 88.0584C334.142 83.7011 342.829 81.0538 344.678 84.1628C345.51 85.5636 344.667 87.7954 342.304 90.4471C340.045 92.9824 336.64 95.6627 332.716 97.9946C327.601 101.035 321.824 103.244 318.172 103.244ZM341.319 83.6353C338.291 83.6353 333.12 85.282 327.238 88.7775C318.748 93.824 314.349 99.4109 315.569 101.463C316.789 103.514 323.798 102.322 332.289 97.2755C336.141 94.9861 339.476 92.3634 341.68 89.8903C343.749 87.5677 344.58 85.6359 343.959 84.59C343.583 83.9596 342.662 83.6353 341.319 83.6353Z" fill="white"/>
<path d="M33.242 323.061L90.7613 298.302L83.1374 280.591L78.8312 277.611L79.4012 271.911L76.0729 264.179L18.5537 288.938L21.8818 296.67L25.9319 299.523L25.6181 305.35L33.242 323.061Z" fill="white"/>
<path d="M32.101 325.212L17.082 290.32L17.4661 290.154L75.3698 265.23L90.3884 300.123L90.0044 300.288L32.101 325.212ZM18.1808 290.758L32.5387 324.113L89.2893 299.684L74.9317 266.329L18.1808 290.758Z" fill="#363E44"/>
<path d="M25.6128 305.361L83.1309 280.601L79.3943 271.921L21.8763 296.681L25.6128 305.361Z" fill="#363E44"/>
<path d="M26.8989 345.618C37.5155 345.618 46.1219 342.894 46.1219 339.533C46.1219 336.172 37.5155 333.447 26.8989 333.447C16.2823 333.447 7.67578 336.172 7.67578 339.533C7.67578 342.894 16.2823 345.618 26.8989 345.618Z" fill="#DEC41E"/>
<path d="M46.1221 333.471H7.67578V339.741H46.1221V333.471Z" fill="#DEC41E"/>
<path d="M26.8989 339.675C37.5155 339.675 46.1219 336.95 46.1219 333.589C46.1219 330.228 37.5155 327.504 26.8989 327.504C16.2823 327.504 7.67578 330.228 7.67578 333.589C7.67578 336.95 16.2823 339.675 26.8989 339.675Z" fill="#FBDE24"/>
<path d="M29.1629 340.093C18.1491 340.093 9.52148 337.236 9.52148 333.589C9.52148 329.942 18.1491 327.085 29.1629 327.085C40.1768 327.085 48.8044 329.942 48.8044 333.589C48.8042 337.236 40.1766 340.093 29.1629 340.093ZM29.1629 327.922C17.9142 327.922 10.3582 330.852 10.3582 333.589C10.3582 336.326 17.9144 339.256 29.1629 339.256C40.4115 339.256 47.9677 336.326 47.9677 333.589C47.9677 330.852 40.4115 327.922 29.1629 327.922Z" fill="white"/>
<path d="M30.0561 336.778C40.6727 336.778 49.2792 334.053 49.2792 330.692C49.2792 327.331 40.6727 324.606 30.0561 324.606C19.4395 324.606 10.833 327.331 10.833 330.692C10.833 334.053 19.4395 336.778 30.0561 336.778Z" fill="#DEC41E"/>
<path d="M49.2794 324.63H10.833V330.9H49.2794V324.63Z" fill="#DEC41E"/>
<path d="M30.0561 330.834C40.6727 330.834 49.2792 328.11 49.2792 324.749C49.2792 321.388 40.6727 318.663 30.0561 318.663C19.4395 318.663 10.833 321.388 10.833 324.749C10.833 328.11 19.4395 330.834 30.0561 330.834Z" fill="#FBDE24"/>
<path d="M28.7147 330.521C17.7008 330.521 9.07324 327.664 9.07324 324.017C9.07324 320.37 17.7008 317.514 28.7147 317.514C39.7286 317.514 48.3561 320.37 48.3561 324.017C48.3561 327.664 39.7286 330.521 28.7147 330.521ZM28.7147 318.35C17.4659 318.35 9.90996 321.281 9.90996 324.017C9.90996 326.754 17.4661 329.684 28.7147 329.684C39.9633 329.684 47.5194 326.754 47.5194 324.017C47.5196 321.281 39.9634 318.35 28.7147 318.35Z" fill="white"/>
<path d="M26.8989 325.807C37.5155 325.807 46.1219 323.082 46.1219 319.721C46.1219 316.36 37.5155 313.636 26.8989 313.636C16.2823 313.636 7.67578 316.36 7.67578 319.721C7.67578 323.082 16.2823 325.807 26.8989 325.807Z" fill="#DEC41E"/>
<path d="M46.1221 313.66H7.67578V319.93H46.1221V313.66Z" fill="#DEC41E"/>
<path d="M26.8989 319.864C37.5155 319.864 46.1219 317.14 46.1219 313.779C46.1219 310.418 37.5155 307.693 26.8989 307.693C16.2823 307.693 7.67578 310.418 7.67578 313.779C7.67578 317.14 16.2823 319.864 26.8989 319.864Z" fill="#FBDE24"/>
<path d="M29.1629 320.282C18.1491 320.282 9.52148 317.425 9.52148 313.778C9.52148 310.131 18.1491 307.274 29.1629 307.274C40.1768 307.274 48.8044 310.131 48.8044 313.778C48.8042 317.425 40.1766 320.282 29.1629 320.282ZM29.1629 308.111C17.9142 308.111 10.3582 311.041 10.3582 313.778C10.3582 316.515 17.9144 319.445 29.1629 319.445C40.4115 319.445 47.9677 316.515 47.9677 313.778C47.9677 311.041 40.4115 308.111 29.1629 308.111Z" fill="white"/>
<path d="M33.1264 316.997C43.743 316.997 52.3495 314.273 52.3495 310.912C52.3495 307.551 43.743 304.826 33.1264 304.826C22.5098 304.826 13.9033 307.551 13.9033 310.912C13.9033 314.273 22.5098 316.997 33.1264 316.997Z" fill="#DEC41E"/>
<path d="M52.3497 304.851H13.9033V311.12H52.3497V304.851Z" fill="#DEC41E"/>
<path d="M33.1264 311.055C43.743 311.055 52.3495 308.33 52.3495 304.969C52.3495 301.608 43.743 298.884 33.1264 298.884C22.5098 298.884 13.9033 301.608 13.9033 304.969C13.9033 308.33 22.5098 311.055 33.1264 311.055Z" fill="#FBDE24"/>
<path d="M35.3905 311.472C24.3766 311.472 15.749 308.615 15.749 304.969C15.749 301.322 24.3766 298.465 35.3905 298.465C46.4043 298.465 55.0319 301.322 55.0319 304.969C55.0319 308.615 46.4043 311.472 35.3905 311.472ZM35.3905 299.302C24.1417 299.302 16.5858 302.232 16.5858 304.969C16.5858 307.705 24.1417 310.636 35.3905 310.636C46.6392 310.636 54.1952 307.705 54.1952 304.969C54.1952 302.232 46.6392 299.302 35.3905 299.302Z" fill="white"/>
<path d="M70.767 345.834C81.3837 345.834 89.9901 343.11 89.9901 339.749C89.9901 336.388 81.3837 333.663 70.767 333.663C60.1504 333.663 51.5439 336.388 51.5439 339.749C51.5439 343.11 60.1504 345.834 70.767 345.834Z" fill="#DEC41E"/>
<path d="M89.9903 333.687H51.5439V339.956H89.9903V333.687Z" fill="#DEC41E"/>
<path d="M70.767 339.891C81.3837 339.891 89.9901 337.166 89.9901 333.805C89.9901 330.444 81.3837 327.72 70.767 327.72C60.1504 327.72 51.5439 330.444 51.5439 333.805C51.5439 337.166 60.1504 339.891 70.767 339.891Z" fill="#FBDE24"/>
<path d="M73.0321 340.31C62.0182 340.31 53.3906 337.453 53.3906 333.806C53.3906 330.16 62.0182 327.303 73.0321 327.303C84.0459 327.303 92.6735 330.16 92.6735 333.806C92.6735 337.453 84.0459 340.31 73.0321 340.31ZM73.0321 328.139C61.7833 328.139 54.2274 331.069 54.2274 333.806C54.2274 336.543 61.7833 339.473 73.0321 339.473C84.2808 339.473 91.8368 336.543 91.8368 333.806C91.837 331.069 84.2808 328.139 73.0321 328.139Z" fill="white"/>
<path d="M68.5024 336.708C79.119 336.708 87.7255 333.991 87.7255 330.639C87.7255 327.287 79.119 324.57 68.5024 324.57C57.8858 324.57 49.2793 327.287 49.2793 330.639C49.2793 333.991 57.8858 336.708 68.5024 336.708Z" fill="#DEC41E"/>
<path d="M87.7257 324.593H49.2793V330.845H87.7257V324.593Z" fill="#DEC41E"/>
<path d="M68.5024 330.781C79.119 330.781 87.7255 328.064 87.7255 324.712C87.7255 321.361 79.119 318.644 68.5024 318.644C57.8858 318.644 49.2793 321.361 49.2793 324.712C49.2793 328.064 57.8858 330.781 68.5024 330.781Z" fill="#FBDE24"/>
<path d="M70.7684 331.2C59.7545 331.2 51.127 328.351 51.127 324.713C51.127 321.075 59.7545 318.226 70.7684 318.226C81.7823 318.226 90.4099 321.075 90.4099 324.713C90.4099 328.351 81.7821 331.2 70.7684 331.2ZM70.7684 319.062C59.5196 319.062 51.9637 321.984 51.9637 324.713C51.9637 327.442 59.5198 330.363 70.7684 330.363C82.0172 330.363 89.5731 327.442 89.5731 324.713C89.5731 321.984 82.017 319.062 70.7684 319.062Z" fill="white"/>
<path d="M74.181 325.788C76.5685 323.421 72.4467 315.391 64.9745 307.851C57.5024 300.311 49.5095 296.116 47.1219 298.482C44.7343 300.849 48.8562 308.879 56.3283 316.419C63.8005 323.959 71.7934 328.154 74.181 325.788Z" fill="#DEC41E"/>
<path d="M51.4336 294.205L46.9795 298.619L74.0384 325.924L78.4925 321.51L51.4336 294.205Z" fill="#DEC41E"/>
<path d="M78.4035 321.605C80.791 319.239 76.6691 311.209 69.1969 303.669C61.7248 296.128 53.7319 291.934 51.3444 294.3C48.9569 296.666 53.0789 304.696 60.551 312.237C68.0232 319.777 76.016 323.971 78.4035 321.605Z" fill="#FBDE24"/>
<path d="M78.1018 324.287C74.4504 324.287 68.0334 320.402 61.8401 314.152C58.1968 310.475 55.2227 306.564 53.4654 303.14C51.6367 299.576 51.343 296.907 52.6385 295.624C55.2307 293.06 63.3325 297.175 71.083 304.997C74.7262 308.674 77.7003 312.585 79.4578 316.009C81.2863 319.573 81.5802 322.242 80.2847 323.525C79.7637 324.041 79.0201 324.287 78.1018 324.287ZM54.8465 295.683C54.139 295.683 53.5891 295.86 53.2275 296.219C52.2274 297.209 52.5852 299.592 54.2095 302.758C55.9291 306.108 58.85 309.946 62.4339 313.562C70.3515 321.553 77.7515 324.857 79.6954 322.93C80.6958 321.94 80.3376 319.557 78.7133 316.392C76.9937 313.041 74.073 309.204 70.4889 305.586C64.0448 299.083 57.9424 295.683 54.8465 295.683Z" fill="white"/>
<path d="M284.273 247.428C284.273 247.428 351.802 273.991 345.974 300.629C340.729 324.608 276.12 296.22 276.12 296.22L284.273 247.428Z" fill="#00B09C"/>
<path d="M328.755 310.688C308.292 310.688 277.527 297.295 275.951 296.603C275.74 296.51 275.644 296.263 275.736 296.052C275.83 295.84 276.075 295.743 276.288 295.837C276.755 296.042 323.186 316.259 339.948 307.728C342.968 306.191 344.858 303.772 345.565 300.54C349.963 280.436 311.282 260.007 294.447 252.158C294.238 252.06 294.148 251.811 294.245 251.602C294.343 251.393 294.592 251.302 294.801 251.399C304.397 255.874 318.141 263.001 329.127 271.545C342.531 281.97 348.337 291.786 346.382 300.719C345.619 304.208 343.582 306.817 340.327 308.474C337.246 310.042 333.248 310.688 328.755 310.688Z" fill="#363E44"/>
<path d="M284.776 247.473C284.776 247.473 255.685 238.269 230.935 243.97C206.184 249.672 189.024 258.745 189.024 258.745L200.487 289.253L203.32 346.927L288.18 317.259L281.844 292.276L284.776 247.473Z" fill="#00B09C"/>
<path d="M169.164 304.662C181.076 306.083 209.294 308.04 212.041 308.341C217.176 308.903 249.107 312.288 248.843 316.63C248.688 319.181 239.168 318.102 237.372 317.887C238.737 318.775 247.722 323.232 247.182 325.32C246.255 328.91 235.806 323.748 235.67 323.782C237.148 324.544 245.331 327.704 245.03 329.293C244.384 332.693 235.864 330.021 233.97 329.656C234.119 329.953 241.155 332.038 240.805 334.313C240.528 336.119 230.316 335.474 227.928 335.408C223.366 334.912 211.345 335.016 202.659 334.954C182.258 334.809 168.299 327.651 168.299 327.651C168.299 327.651 163.718 308.133 169.164 304.662Z" fill="#E2A18D"/>
<path d="M237.456 318.123C237.394 318.123 237.331 318.109 237.272 318.08C236.319 317.61 235.326 317.202 234.32 316.869C232.514 316.269 230.627 315.893 228.711 315.75C228.481 315.733 228.308 315.533 228.325 315.302C228.342 315.072 228.54 314.899 228.774 314.916C230.758 315.064 232.713 315.453 234.584 316.074C235.626 316.42 236.655 316.843 237.642 317.33C237.849 317.432 237.934 317.683 237.832 317.89C237.759 318.038 237.611 318.123 237.456 318.123Z" fill="#363E44"/>
<path d="M235.786 324.081C235.738 324.081 235.69 324.073 235.642 324.055C235.433 323.979 235.219 323.905 235 323.832C233.194 323.233 231.307 322.856 229.391 322.714C229.161 322.697 228.988 322.496 229.005 322.266C229.022 322.035 229.211 321.859 229.453 321.88C231.437 322.027 233.392 322.417 235.264 323.038C235.491 323.113 235.713 323.19 235.93 323.27C236.146 323.349 236.258 323.59 236.178 323.806C236.116 323.976 235.956 324.081 235.786 324.081Z" fill="#363E44"/>
<path d="M233.852 330.006C233.819 330.006 233.787 330.002 233.754 329.994C232.543 329.705 231.296 329.511 230.046 329.418C229.816 329.401 229.643 329.2 229.66 328.97C229.677 328.739 229.875 328.563 230.108 328.584C231.402 328.68 232.694 328.881 233.948 329.181C234.173 329.234 234.311 329.46 234.258 329.685C234.212 329.876 234.041 330.006 233.852 330.006Z" fill="#363E44"/>
<path d="M244.735 263.134C244.667 263.134 244.6 263.117 244.539 263.085L232.62 256.768C232.416 256.66 232.338 256.406 232.446 256.202C232.554 255.999 232.808 255.92 233.012 256.029L244.39 262.059L246.706 242.273C246.733 242.043 246.941 241.876 247.17 241.906C247.399 241.933 247.564 242.14 247.537 242.37L245.15 262.764C245.134 262.901 245.051 263.021 244.929 263.086C244.868 263.118 244.801 263.134 244.735 263.134Z" fill="#363E44"/>
<path d="M215.792 264.537C215.735 264.537 215.678 264.526 215.624 264.502C215.49 264.443 215.396 264.318 215.378 264.173L213.254 247.974C213.223 247.745 213.385 247.535 213.614 247.505C213.843 247.472 214.053 247.636 214.083 247.866L216.117 263.377L225.64 256.654C225.83 256.521 226.091 256.566 226.224 256.755C226.357 256.944 226.312 257.205 226.123 257.338L216.034 264.461C215.962 264.511 215.877 264.537 215.792 264.537Z" fill="#363E44"/>
<path d="M205.809 295.306L188.413 298.639L201.404 302.214L202.682 335.05C202.682 335.05 138.324 335.523 138.568 305.512C138.746 283.68 190.733 257.907 190.733 257.907L205.809 295.306Z" fill="#00B09C"/>
<path d="M306.58 282.325C282.532 277.671 274.291 275.038 250.244 270.384C247.61 268.516 240.449 263.314 230.887 263.233C221.324 263.152 212.368 269.593 213.194 271.938C213.58 273.035 215.928 274.822 218.638 273.036C221.896 270.889 223.998 270.906 226.675 270.686C226.369 270.984 224.455 272.198 224.62 274.206C224.788 276.249 226.628 277.727 226.906 277.971C226.185 279.369 225.603 280.587 226.304 282.459C227.133 284.673 229.424 285.32 229.424 285.32C229.424 285.32 229 288.307 230.786 291.017C233.083 294.503 237.311 295.556 238.596 293.946C239.102 293.312 239.6 291.51 237.575 289.179C238.574 289.86 241.991 294.042 245.691 295.448C248.767 296.616 251.913 295.314 253.01 295.08C272.551 303.704 280.427 303.952 299.967 312.576C303.166 300.96 303.381 293.941 306.58 282.325Z" fill="#E2A18D"/>
<path d="M226.919 270.904C226.741 270.904 226.575 270.789 226.52 270.61C226.451 270.389 226.575 270.154 226.795 270.086C227.414 269.895 228.054 269.775 228.7 269.729C229.477 269.674 230.26 269.727 231.027 269.886C231.253 269.933 231.398 270.155 231.351 270.381C231.304 270.607 231.08 270.749 230.857 270.706C230.165 270.562 229.459 270.516 228.759 270.564C228.177 270.605 227.6 270.713 227.043 270.886C227.002 270.898 226.96 270.904 226.919 270.904Z" fill="#363E44"/>
<path d="M226.871 278.602C226.733 278.602 226.598 278.535 226.518 278.41C226.394 278.215 226.45 277.957 226.645 277.832C227.189 277.482 227.775 277.194 228.383 276.978C229.118 276.717 229.887 276.559 230.667 276.507C230.894 276.498 231.097 276.667 231.112 276.897C231.127 277.128 230.953 277.327 230.722 277.342C230.019 277.388 229.326 277.531 228.663 277.767C228.115 277.962 227.588 278.22 227.096 278.536C227.026 278.581 226.948 278.602 226.871 278.602Z" fill="#363E44"/>
<path d="M229.672 285.449C229.59 285.449 229.508 285.425 229.435 285.375C229.245 285.244 229.197 284.983 229.328 284.793C229.839 284.051 230.721 283.379 231.576 283.081C233.114 282.544 234.486 282.932 235.167 283.21C235.38 283.298 235.483 283.542 235.395 283.756C235.308 283.97 235.063 284.073 234.85 283.985C234.278 283.751 233.129 283.426 231.851 283.871C231.153 284.115 230.433 284.663 230.017 285.267C229.936 285.385 229.805 285.449 229.672 285.449Z" fill="#363E44"/>
<path d="M237.687 289.624C237.664 289.624 237.642 289.622 237.618 289.618L234.55 289.107C234.322 289.069 234.168 288.854 234.206 288.626C234.244 288.398 234.458 288.242 234.687 288.282L237.755 288.793C237.983 288.831 238.137 289.046 238.099 289.274C238.066 289.479 237.888 289.624 237.687 289.624Z" fill="#363E44"/>
<path d="M343.853 301.346C348.216 278.366 271.097 270.243 271.097 270.243L263.177 303.827C263.177 303.827 338.043 331.948 343.853 301.346Z" fill="#00B09C"/>
<path d="M330.419 285.087C330.357 285.087 330.294 285.073 330.235 285.044C309.437 274.795 271.435 270.7 271.053 270.659C270.823 270.635 270.657 270.429 270.681 270.2C270.705 269.97 270.917 269.803 271.141 269.828C271.524 269.868 309.674 273.98 330.605 284.293C330.812 284.396 330.897 284.646 330.795 284.854C330.722 285.001 330.574 285.087 330.419 285.087Z" fill="#363E44"/>
<path d="M316.169 313.847C309.9 313.848 302.799 313.206 294.877 311.92C277.848 309.155 263.19 304.273 263.044 304.224C262.839 304.155 262.721 303.942 262.77 303.731L263.739 299.619C263.792 299.395 264.018 299.255 264.243 299.308C264.467 299.361 264.607 299.586 264.554 299.811L263.673 303.549C268.627 305.151 322.483 322.033 342.162 306.283C342.343 306.137 342.606 306.167 342.75 306.348C342.895 306.528 342.865 306.791 342.685 306.936C336.934 311.539 328.052 313.847 316.169 313.847Z" fill="#363E44"/>
<path d="M201.53 302.441C201.496 302.441 201.463 302.437 201.429 302.429L162.662 292.788C162.438 292.732 162.302 292.505 162.357 292.281C162.413 292.056 162.64 291.922 162.864 291.976L201.631 301.616C201.855 301.672 201.991 301.899 201.936 302.123C201.888 302.314 201.717 302.441 201.53 302.441Z" fill="#363E44"/>
<path d="M201.614 307.632C201.392 307.632 201.207 307.456 201.197 307.232L199.844 275.834C199.834 275.603 200.013 275.408 200.244 275.398C200.482 275.382 200.67 275.567 200.68 275.798L202.033 307.196C202.042 307.427 201.863 307.622 201.633 307.632C201.627 307.632 201.621 307.632 201.614 307.632Z" fill="#363E44"/>
<path d="M149.845 286.089C149.74 286.089 149.634 286.049 149.553 285.969C149.388 285.808 149.384 285.543 149.546 285.378C162.492 272.132 202.58 252.341 202.983 252.143C203.192 252.042 203.442 252.127 203.544 252.334C203.645 252.541 203.56 252.792 203.353 252.894C202.95 253.091 162.991 272.819 150.144 285.963C150.063 286.046 149.954 286.089 149.845 286.089Z" fill="#363E44"/>
<path d="M221.304 246.541L228.504 263.401L241.433 242.299L232.805 216.588L216.331 219.626L221.304 246.541Z" fill="#E2A18D"/>
<path d="M220.104 204.349C219.383 204.388 212.485 204.867 209.089 210.15C206.562 214.081 206.872 218.587 208.534 226.065C210.492 234.872 212.893 239.863 215.722 241.23C220.191 243.39 231.376 235.339 234.755 226.876C237.194 220.766 235.721 213.6 231.398 208.581C227.086 203.576 220.564 204.324 220.104 204.349Z" fill="#E2A18D"/>
<path d="M221.143 241.409C220.98 241.409 220.825 241.313 220.757 241.152C220.668 240.94 220.768 240.694 220.981 240.605C225.723 238.609 232.055 232.969 234.444 226.987C234.53 226.772 234.773 226.668 234.988 226.754C235.202 226.839 235.307 227.083 235.221 227.297C232.658 233.716 226.138 239.342 221.305 241.376C221.253 241.398 221.198 241.409 221.143 241.409Z" fill="#363E44"/>
<path d="M221.954 220.102C221.954 220.102 221.538 222.836 219.772 225.176C219.401 225.668 216.14 221.727 216.722 221.424C219.27 220.096 221.954 220.102 221.954 220.102Z" fill="white"/>
<path d="M211.548 229.026C211.548 229.026 212.157 225.022 215.031 222.558C215.564 222.1 216.138 221.729 216.719 221.426C218.272 222.037 219.469 223.418 219.779 225.165C219.406 225.66 218.974 226.139 218.472 226.57C215.598 229.034 211.548 229.026 211.548 229.026Z" fill="#363E44"/>
<path d="M209.926 227.821C210.042 228.376 210.132 229.204 209.871 230.114C209.556 231.211 208.964 231.617 209.075 232.264C209.15 232.698 209.547 233.276 211.084 233.8L209.926 227.821Z" fill="#E2A18D"/>
<path d="M210.713 233.794C210.669 233.794 210.624 233.787 210.58 233.772C209.454 233.394 208.851 232.901 208.739 232.265C208.664 231.84 208.842 231.514 209.014 231.199C209.132 230.983 209.264 230.74 209.357 230.41C209.496 229.92 209.505 229.39 209.386 228.834C209.338 228.608 209.482 228.386 209.708 228.338C209.932 228.286 210.155 228.433 210.204 228.659C210.352 229.35 210.338 230.015 210.162 230.637C210.044 231.057 209.88 231.358 209.749 231.599C209.596 231.878 209.541 231.995 209.563 232.12C209.614 232.409 210.082 232.722 210.846 232.979C211.065 233.052 211.183 233.29 211.11 233.509C211.051 233.684 210.888 233.794 210.713 233.794Z" fill="#363E44"/>
<path d="M209.554 203.466C212.056 200.414 216.3 198.618 220.704 198.16L216.148 200.889L223.805 198.06C227.39 198.203 230.835 199.252 233.278 201.261C239.744 206.578 240.832 212.765 236.653 228.165C235.125 224.02 233.554 217.712 230.375 217.057C228.32 216.635 226.53 217.467 225.708 217.928C224.024 213.84 222.865 209.93 218.926 210.219C214.75 210.525 209.055 215.814 208.714 216.304C208.448 215.444 205.103 208.895 209.554 203.466Z" fill="#9E6C5A"/>
<path d="M234.694 220.782C235.597 217.778 234.27 214.725 231.731 213.962C229.192 213.199 226.402 215.015 225.5 218.019C224.597 221.023 225.923 224.077 228.462 224.84C231.001 225.603 233.791 223.786 234.694 220.782Z" fill="#E2A18D"/>
<path d="M232.223 221.081C232.16 221.081 232.096 221.067 232.036 221.037C231.83 220.933 231.746 220.682 231.85 220.475C231.925 220.325 231.989 220.165 232.038 220C232.43 218.697 231.88 217.376 230.813 217.055C230.561 216.979 230.298 216.964 230.031 217.01C229.801 217.048 229.586 216.897 229.546 216.67C229.507 216.442 229.659 216.226 229.887 216.186C230.283 216.118 230.675 216.14 231.054 216.253C232.563 216.707 233.364 218.496 232.839 220.241C232.776 220.451 232.695 220.657 232.597 220.851C232.525 220.997 232.377 221.081 232.223 221.081Z" fill="#363E44"/>
<path d="M225.341 214.955C224.624 215.047 226.901 223.001 225.039 226.611C222.39 231.746 216.324 233.098 210.751 233.871C210.091 236.651 207.504 248.304 211.769 250.853C216.168 253.481 227.493 246.209 230.39 236.332C232.949 227.609 226.486 214.81 225.341 214.955Z" fill="#9E6C5A"/>
<path d="M215.676 236.756C215.41 236.756 215.138 236.711 214.875 236.617C214.657 236.539 214.544 236.299 214.622 236.082C214.7 235.864 214.94 235.751 215.157 235.829C215.773 236.051 216.454 235.859 216.812 235.366C217.257 234.751 216.931 233.974 216.928 233.966C216.837 233.755 216.933 233.508 217.145 233.416C217.356 233.324 217.602 233.42 217.694 233.631C217.716 233.68 218.217 234.853 217.489 235.857C217.072 236.434 216.389 236.756 215.676 236.756Z" fill="#363E44"/>
<path d="M135.083 342.143H251.092C253.515 342.143 255.479 340.178 255.479 337.755V337.376H130.695V337.755C130.695 340.179 132.66 342.143 135.083 342.143Z" fill="#363E44"/>
<path d="M123.172 337.356H219.586L193.764 268.936H97.3506L123.172 337.356Z" fill="#363E44"/>
<path d="M152.082 302.434C152.701 304.431 154.372 305.687 155.815 305.24C157.257 304.793 157.924 302.811 157.305 300.814C156.685 298.817 155.014 297.561 153.572 298.008C152.13 298.456 151.463 300.437 152.082 302.434Z" fill="#F2E6DC"/>
</svg>
