<svg width="98" height="98" viewBox="0 0 98 98" fill="none" xmlns="http://www.w3.org/2000/svg">
<path d="M47.5293 20.0766C53.6767 19.2705 59.9263 20.263 65.5215 22.9341C71.1165 25.6052 75.8181 29.8406 79.0566 35.1274C82.2951 40.4144 83.9329 46.5272 83.7705 52.7251C83.608 58.9231 81.6527 64.942 78.1416 70.0522C74.6305 75.1623 69.7137 79.1456 63.9863 81.52C58.259 83.8943 51.9658 84.5581 45.8691 83.4311C39.7724 82.304 34.1319 79.4335 29.6318 75.1684C25.9372 71.6666 23.1422 67.3465 21.4561 62.5766L22.4229 62.3169C24.0593 66.9093 26.7596 71.068 30.3203 74.4428C34.68 78.5749 40.1441 81.3557 46.0508 82.4477C51.9574 83.5396 58.0547 82.8964 63.6035 80.5962C69.1523 78.2958 73.9158 74.4365 77.3174 69.4858C80.719 64.535 82.613 58.7043 82.7705 52.6997C82.9279 46.6949 81.3417 40.7722 78.2041 35.6499C75.0665 30.5278 70.5115 26.4243 65.0908 23.8364C59.6701 21.2486 53.615 20.2869 47.6592 21.0678L47.5947 20.5727L47.5293 20.0766Z" fill="white"/>
<path d="M23.9756 16.4381C27.9652 13.3767 32.4836 11.0805 37.3022 9.66198C37.749 9.53048 37.9723 9.46473 38.1561 9.56784C38.3398 9.67095 38.4011 9.89973 38.5237 10.3573L48.5745 47.8674C48.6965 48.3228 48.7575 48.5504 48.654 48.7298C48.5504 48.9091 48.3228 48.9702 47.8674 49.0922L10.3573 59.143C9.89973 59.2656 9.67095 59.3269 9.48978 59.2193C9.30861 59.1117 9.25387 58.8854 9.14439 58.4328C7.96353 53.5505 7.69295 48.4893 8.34933 43.5035C9.04926 38.1871 10.7895 33.0606 13.4706 28.4167C16.1518 23.7728 19.7214 19.7024 23.9756 16.4381Z" stroke="white" stroke-width="3"/>
</svg>
