<svg width="31" height="31" viewBox="0 0 31 31" fill="none" xmlns="http://www.w3.org/2000/svg">
<path d="M11.8313 14.0401C11.7021 14.0272 11.5471 14.0272 11.4051 14.0401C8.3309 13.9368 5.88965 11.418 5.88965 8.31801C5.88965 5.15342 8.44715 2.58301 11.6246 2.58301C14.7892 2.58301 17.3596 5.15342 17.3596 8.31801C17.3467 11.418 14.9055 13.9368 11.8313 14.0401Z" stroke="#00B09C" stroke-width="1.5" stroke-linecap="round" stroke-linejoin="round"/>
<path d="M21.1962 5.16699C23.7021 5.16699 25.7171 7.19491 25.7171 9.68783C25.7171 12.1291 23.7796 14.1182 21.3642 14.2087C21.2608 14.1957 21.1446 14.1957 21.0283 14.2087" stroke="#00B09C" stroke-width="1.5" stroke-linecap="round" stroke-linejoin="round"/>
<path d="M5.37367 18.807C2.24784 20.8995 2.24784 24.3095 5.37367 26.3891C8.92576 28.7657 14.7512 28.7657 18.3033 26.3891C21.4291 24.2966 21.4291 20.8866 18.3033 18.807C14.7641 16.4432 8.93867 16.4432 5.37367 18.807Z" stroke="#00B09C" stroke-width="1.5" stroke-linecap="round" stroke-linejoin="round"/>
<path d="M23.6895 25.833C24.6195 25.6393 25.4978 25.2647 26.2211 24.7093C28.2361 23.198 28.2361 20.7051 26.2211 19.1938C25.5107 18.6513 24.6453 18.2897 23.7282 18.083" stroke="#00B09C" stroke-width="1.5" stroke-linecap="round" stroke-linejoin="round"/>
</svg>
