<svg width="126" height="126" viewBox="0 0 126 126" fill="none" xmlns="http://www.w3.org/2000/svg">
<path d="M103 83L123 63M123 63L103 43M123 63H29.6667M76.3333 89.6667V107C76.3333 109.101 75.9195 111.182 75.1154 113.123C74.3113 115.064 73.1328 116.828 71.647 118.314C70.1613 119.799 68.3975 120.978 66.4563 121.782C64.5151 122.586 62.4345 123 60.3333 123H19C14.7565 123 10.6869 121.314 7.68629 118.314C4.68571 115.313 3 111.243 3 107V19C3 16.8989 3.41385 14.8183 4.21793 12.8771C5.022 10.9359 6.20055 9.17203 7.68629 7.68629C10.6869 4.68571 14.7565 3 19 3H60.3333C62.4345 3 64.5151 3.41385 66.4563 4.21793C68.3975 5.022 70.1613 6.20055 71.647 7.68629C73.1328 9.17203 74.3113 10.9359 75.1154 12.8771C75.9195 14.8183 76.3333 16.8989 76.3333 19V36.3333" stroke="#00B09C" stroke-width="6" stroke-miterlimit="10" stroke-linecap="round" stroke-linejoin="round"/>
</svg>
